<svg width="1429" height="1010" viewBox="0 0 1429 1010" fill="none" xmlns="http://www.w3.org/2000/svg">
<g opacity="0.7">
<rect x="0.5" y="0.5" width="87.7767" height="99.1991" stroke="#242424"/>
<rect x="103.563" y="0.5" width="87.7767" height="99.1991" stroke="#242424"/>
<rect x="206.625" y="0.5" width="87.7767" height="99.1991" stroke="#242424"/>
<rect x="309.688" y="0.5" width="87.7767" height="99.1991" stroke="#242424"/>
<rect x="412.751" y="0.5" width="87.7767" height="99.1991" stroke="#242424"/>
<rect x="515.813" y="0.5" width="87.7767" height="99.1991" stroke="#242424"/>
<rect x="618.877" y="0.5" width="87.7767" height="99.1991" stroke="#242424"/>
<rect x="721.939" y="0.5" width="87.7767" height="99.1991" stroke="#242424"/>
<rect x="825.001" y="0.5" width="87.7767" height="99.1991" stroke="#242424"/>
<rect x="928.063" y="0.5" width="87.7767" height="99.1991" stroke="#242424"/>
<rect x="1031.13" y="0.5" width="87.7767" height="99.1991" stroke="#242424"/>
<rect x="1134.19" y="0.5" width="87.7767" height="99.1991" stroke="#242424"/>
<rect x="1237.25" y="0.5" width="87.7767" height="99.1991" stroke="#242424"/>
<rect x="1340.32" y="0.5" width="87.7767" height="99.1991" stroke="#242424"/>
<rect x="0.5" y="114.208" width="87.7767" height="99.1991" stroke="#242424"/>
<rect x="103.563" y="114.208" width="87.7767" height="99.1991" stroke="#242424"/>
<rect x="206.625" y="114.208" width="87.7767" height="99.1991" stroke="#242424"/>
<rect x="309.688" y="114.208" width="87.7767" height="99.1991" stroke="#242424"/>
<rect x="412.751" y="114.208" width="87.7767" height="99.1991" stroke="#242424"/>
<rect x="515.813" y="114.208" width="87.7767" height="99.1991" stroke="#242424"/>
<rect x="618.877" y="114.208" width="87.7767" height="99.1991" stroke="#242424"/>
<rect x="721.939" y="114.208" width="87.7767" height="99.1991" stroke="#242424"/>
<rect x="825.001" y="114.208" width="87.7767" height="99.1991" stroke="#242424"/>
<rect x="928.063" y="114.208" width="87.7767" height="99.1991" stroke="#242424"/>
<rect x="1031.13" y="114.208" width="87.7767" height="99.1991" stroke="#242424"/>
<rect x="1134.19" y="114.208" width="87.7767" height="99.1991" stroke="#242424"/>
<rect x="1237.25" y="114.208" width="87.7767" height="99.1991" stroke="#242424"/>
<rect x="1340.32" y="114.208" width="87.7767" height="99.1991" stroke="#242424"/>
<rect x="0.5" y="227.918" width="87.7767" height="99.1991" stroke="#242424"/>
<rect x="103.563" y="227.918" width="87.7767" height="99.1991" stroke="#242424"/>
<rect x="206.625" y="227.918" width="87.7767" height="99.1991" stroke="#242424"/>
<rect x="309.688" y="227.918" width="87.7767" height="99.1991" stroke="#242424"/>
<rect x="412.751" y="227.918" width="87.7767" height="99.1991" stroke="#242424"/>
<rect x="515.813" y="227.918" width="87.7767" height="99.1991" stroke="#242424"/>
<rect x="618.877" y="227.918" width="87.7767" height="99.1991" stroke="#242424"/>
<rect x="721.939" y="227.918" width="87.7767" height="99.1991" stroke="#242424"/>
<rect x="825.001" y="227.918" width="87.7767" height="99.1991" stroke="#242424"/>
<rect x="928.063" y="227.918" width="87.7767" height="99.1991" stroke="#242424"/>
<rect x="1031.13" y="227.918" width="87.7767" height="99.1991" stroke="#242424"/>
<rect x="1134.19" y="227.918" width="87.7767" height="99.1991" stroke="#242424"/>
<rect x="1237.25" y="227.918" width="87.7767" height="99.1991" stroke="#242424"/>
<rect x="1340.32" y="227.918" width="87.7767" height="99.1991" stroke="#242424"/>
<rect x="0.5" y="341.626" width="87.7767" height="99.1991" stroke="#242424"/>
<rect x="103.563" y="341.626" width="87.7767" height="99.1991" stroke="#242424"/>
<rect x="206.625" y="341.626" width="87.7767" height="99.1991" stroke="#242424"/>
<rect x="309.688" y="341.626" width="87.7767" height="99.1991" stroke="#242424"/>
<rect x="412.751" y="341.626" width="87.7767" height="99.1991" stroke="#242424"/>
<rect x="515.813" y="341.626" width="87.7767" height="99.1991" stroke="#242424"/>
<rect x="618.877" y="341.626" width="87.7767" height="99.1991" stroke="#242424"/>
<rect x="721.939" y="341.626" width="87.7767" height="99.1991" stroke="#242424"/>
<rect x="825.002" y="341.625" width="87.7767" height="99.1991" stroke="#242424"/>
<rect x="928.063" y="341.626" width="87.7767" height="99.1991" stroke="#242424"/>
<rect x="1031.13" y="341.625" width="87.7767" height="99.1991" stroke="#242424"/>
<rect x="1134.19" y="341.625" width="87.7767" height="99.1991" stroke="#242424"/>
<rect x="1237.25" y="341.625" width="87.7767" height="99.1991" stroke="#242424"/>
<rect x="1340.32" y="341.626" width="87.7767" height="99.1991" stroke="#242424"/>
<rect x="0.5" y="455.337" width="87.7767" height="99.1991" stroke="#242424"/>
<rect x="103.563" y="455.337" width="87.7767" height="99.1991" stroke="#242424"/>
<rect x="206.625" y="455.337" width="87.7767" height="99.1991" stroke="#242424"/>
<rect x="309.688" y="455.337" width="87.7767" height="99.1991" stroke="#242424"/>
<rect x="412.751" y="455.337" width="87.7767" height="99.1991" stroke="#242424"/>
<rect x="515.813" y="455.337" width="87.7767" height="99.1991" stroke="#242424"/>
<rect x="618.877" y="455.337" width="87.7767" height="99.1991" stroke="#242424"/>
<rect x="721.939" y="455.337" width="87.7767" height="99.1991" stroke="#242424"/>
<rect x="825.001" y="455.337" width="87.7767" height="99.1991" stroke="#242424"/>
<rect x="928.063" y="455.337" width="87.7767" height="99.1991" stroke="#242424"/>
<rect x="1031.13" y="455.337" width="87.7767" height="99.1991" stroke="#242424"/>
<rect x="1134.19" y="455.337" width="87.7767" height="99.1991" stroke="#242424"/>
<rect x="1237.25" y="455.337" width="87.7767" height="99.1991" stroke="#242424"/>
<rect x="1340.32" y="455.337" width="87.7767" height="99.1991" stroke="#242424"/>
<rect x="0.5" y="569.045" width="87.7767" height="99.1991" stroke="#242424"/>
<rect x="103.563" y="569.045" width="87.7767" height="99.1991" stroke="#242424"/>
<rect x="206.625" y="569.045" width="87.7767" height="99.1991" stroke="#242424"/>
<rect x="309.688" y="569.045" width="87.7767" height="99.1991" stroke="#242424"/>
<rect x="412.751" y="569.045" width="87.7767" height="99.1991" stroke="#242424"/>
<rect x="515.813" y="569.045" width="87.7767" height="99.1991" stroke="#242424"/>
<rect x="618.877" y="569.045" width="87.7767" height="99.1991" stroke="#242424"/>
<rect x="721.939" y="569.045" width="87.7767" height="99.1991" stroke="#242424"/>
<rect x="825.001" y="569.045" width="87.7767" height="99.1991" stroke="#242424"/>
<rect x="928.063" y="569.045" width="87.7767" height="99.1991" stroke="#242424"/>
<rect x="1031.13" y="569.045" width="87.7767" height="99.1991" stroke="#242424"/>
<rect x="1134.19" y="569.045" width="87.7767" height="99.1991" stroke="#242424"/>
<rect x="1237.25" y="569.045" width="87.7767" height="99.1991" stroke="#242424"/>
<rect x="1340.32" y="569.045" width="87.7767" height="99.1991" stroke="#242424"/>
<rect x="0.5" y="682.754" width="87.7767" height="99.1991" stroke="#242424"/>
<rect x="103.563" y="682.754" width="87.7767" height="99.1991" stroke="#242424"/>
<rect x="206.625" y="682.754" width="87.7767" height="99.1991" stroke="#242424"/>
<rect x="309.688" y="682.754" width="87.7767" height="99.1991" stroke="#242424"/>
<rect x="412.751" y="682.754" width="87.7767" height="99.1991" stroke="#242424"/>
<rect x="515.813" y="682.754" width="87.7767" height="99.1991" stroke="#242424"/>
<rect x="618.877" y="682.754" width="87.7767" height="99.1991" stroke="#242424"/>
<rect x="721.939" y="682.754" width="87.7767" height="99.1991" stroke="#242424"/>
<rect x="825.001" y="682.754" width="87.7767" height="99.1991" stroke="#242424"/>
<rect x="928.063" y="682.754" width="87.7767" height="99.1991" stroke="#242424"/>
<rect x="1031.13" y="682.754" width="87.7767" height="99.1991" stroke="#242424"/>
<rect x="1134.19" y="682.754" width="87.7767" height="99.1991" stroke="#242424"/>
<rect x="1237.25" y="682.754" width="87.7767" height="99.1991" stroke="#242424"/>
<rect x="1340.32" y="682.754" width="87.7767" height="99.1991" stroke="#242424"/>
<rect x="0.5" y="796.463" width="87.7767" height="99.1991" stroke="#242424"/>
<rect x="103.563" y="796.463" width="87.7767" height="99.1991" stroke="#242424"/>
<rect x="206.625" y="796.463" width="87.7767" height="99.1991" stroke="#242424"/>
<rect x="309.688" y="796.463" width="87.7767" height="99.1991" stroke="#242424"/>
<rect x="412.751" y="796.463" width="87.7767" height="99.1991" stroke="#242424"/>
<rect x="515.813" y="796.463" width="87.7767" height="99.1991" stroke="#242424"/>
<rect x="618.877" y="796.463" width="87.7767" height="99.1991" stroke="#242424"/>
<rect x="721.939" y="796.463" width="87.7767" height="99.1991" stroke="#242424"/>
<rect x="825.001" y="796.463" width="87.7767" height="99.1991" stroke="#242424"/>
<rect x="928.063" y="796.463" width="87.7767" height="99.1991" stroke="#242424"/>
<rect x="1031.13" y="796.463" width="87.7767" height="99.1991" stroke="#242424"/>
<rect x="1134.19" y="796.463" width="87.7767" height="99.1991" stroke="#242424"/>
<rect x="1237.25" y="796.463" width="87.7767" height="99.1991" stroke="#242424"/>
<rect x="1340.32" y="796.463" width="87.7767" height="99.1991" stroke="#242424"/>
<rect x="0.5" y="910.172" width="87.7767" height="99.1991" stroke="#242424"/>
<rect x="103.563" y="910.172" width="87.7767" height="99.1991" stroke="#242424"/>
<rect x="206.625" y="910.172" width="87.7767" height="99.1991" stroke="#242424"/>
<rect x="309.688" y="910.172" width="87.7767" height="99.1991" stroke="#242424"/>
<rect x="412.751" y="910.172" width="87.7767" height="99.1991" stroke="#242424"/>
<rect x="515.813" y="910.172" width="87.7767" height="99.1991" stroke="#242424"/>
<rect x="618.877" y="910.172" width="87.7767" height="99.1991" stroke="#242424"/>
<rect x="721.939" y="910.172" width="87.7767" height="99.1991" stroke="#242424"/>
<rect x="825.001" y="910.172" width="87.7767" height="99.1991" stroke="#242424"/>
<rect x="928.063" y="910.172" width="87.7767" height="99.1991" stroke="#242424"/>
<rect x="1031.13" y="910.172" width="87.7767" height="99.1991" stroke="#242424"/>
<rect x="1134.19" y="910.172" width="87.7767" height="99.1991" stroke="#242424"/>
<rect x="1237.25" y="910.172" width="87.7767" height="99.1991" stroke="#242424"/>
<rect x="1340.32" y="910.172" width="87.7767" height="99.1991" stroke="#242424"/>
</g>
</svg>
