<svg width="792" height="1748" viewBox="0 0 792 1748" fill="none" xmlns="http://www.w3.org/2000/svg">
<g opacity="0.18">
<rect x="11.061" y="0.5" width="113.84" height="128.616" stroke="#F5F5F5"/>
<rect x="144.38" y="0.5" width="113.84" height="128.616" stroke="#F5F5F5"/>
<rect x="277.701" y="0.5" width="113.84" height="128.616" stroke="#F5F5F5"/>
<rect x="411.021" y="0.5" width="113.84" height="128.616" stroke="#F5F5F5"/>
<rect x="544.341" y="0.5" width="113.84" height="128.616" stroke="#F5F5F5"/>
<rect x="677.661" y="0.5" width="113.84" height="128.616" stroke="#F5F5F5"/>
<rect x="11.061" y="147.594" width="113.84" height="128.616" stroke="#F5F5F5"/>
<rect x="144.38" y="147.594" width="113.84" height="128.616" stroke="#F5F5F5"/>
<rect x="277.701" y="147.594" width="113.84" height="128.616" stroke="#F5F5F5"/>
<rect x="411.021" y="147.594" width="113.84" height="128.616" stroke="#F5F5F5"/>
<rect x="544.341" y="147.594" width="113.84" height="128.616" stroke="#F5F5F5"/>
<rect x="677.661" y="147.594" width="113.84" height="128.616" stroke="#F5F5F5"/>
<rect x="11.061" y="294.685" width="113.84" height="128.616" stroke="#F5F5F5"/>
<rect x="144.38" y="294.685" width="113.84" height="128.616" stroke="#F5F5F5"/>
<rect x="277.701" y="294.685" width="113.84" height="128.616" stroke="#F5F5F5"/>
<rect x="411.021" y="294.685" width="113.84" height="128.616" stroke="#F5F5F5"/>
<rect x="544.341" y="294.685" width="113.84" height="128.616" stroke="#F5F5F5"/>
<rect x="677.661" y="294.685" width="113.84" height="128.616" stroke="#F5F5F5"/>
<rect x="11.061" y="441.778" width="113.84" height="128.616" stroke="#F5F5F5"/>
<rect x="144.38" y="441.777" width="113.84" height="128.616" stroke="#F5F5F5"/>
<rect x="277.701" y="441.778" width="113.84" height="128.616" stroke="#F5F5F5"/>
<rect x="411.021" y="441.777" width="113.84" height="128.616" stroke="#F5F5F5"/>
<rect x="544.341" y="441.778" width="113.84" height="128.616" stroke="#F5F5F5"/>
<rect x="677.661" y="441.778" width="113.84" height="128.616" stroke="#F5F5F5"/>
<rect x="11.061" y="588.868" width="113.84" height="128.616" stroke="#F5F5F5"/>
<rect x="144.38" y="588.868" width="113.84" height="128.616" stroke="#F5F5F5"/>
<rect x="277.701" y="588.868" width="113.84" height="128.616" stroke="#F5F5F5"/>
<rect x="411.021" y="588.868" width="113.84" height="128.616" stroke="#F5F5F5"/>
<rect x="544.341" y="588.868" width="113.84" height="128.616" stroke="#F5F5F5"/>
<rect x="677.661" y="588.868" width="113.84" height="128.616" stroke="#F5F5F5"/>
<rect x="11.061" y="735.962" width="113.84" height="128.616" stroke="#F5F5F5"/>
<rect x="144.38" y="735.962" width="113.84" height="128.616" stroke="#F5F5F5"/>
<rect x="277.701" y="735.962" width="113.84" height="128.616" stroke="#F5F5F5"/>
<rect x="411.021" y="735.962" width="113.84" height="128.616" stroke="#F5F5F5"/>
<rect x="544.341" y="735.962" width="113.84" height="128.616" stroke="#F5F5F5"/>
<rect x="677.661" y="735.962" width="113.84" height="128.616" stroke="#F5F5F5"/>
<rect x="11.0613" y="883.051" width="113.84" height="128.616" stroke="#F5F5F5"/>
<rect x="144.38" y="883.052" width="113.84" height="128.616" stroke="#F5F5F5"/>
<rect x="277.701" y="883.051" width="113.84" height="128.616" stroke="#F5F5F5"/>
<rect x="411.021" y="883.051" width="113.84" height="128.616" stroke="#F5F5F5"/>
<rect x="544.341" y="883.051" width="113.84" height="128.616" stroke="#F5F5F5"/>
<rect x="677.661" y="883.052" width="113.84" height="128.616" stroke="#F5F5F5"/>
<rect x="11.061" y="1030.15" width="113.84" height="128.616" stroke="#F5F5F5"/>
<rect x="144.38" y="1030.15" width="113.84" height="128.616" stroke="#F5F5F5"/>
<rect x="277.701" y="1030.15" width="113.84" height="128.616" stroke="#F5F5F5"/>
<rect x="411.021" y="1030.15" width="113.84" height="128.616" stroke="#F5F5F5"/>
<rect x="544.341" y="1030.15" width="113.84" height="128.616" stroke="#F5F5F5"/>
<rect x="677.661" y="1030.15" width="113.84" height="128.616" stroke="#F5F5F5"/>
<rect x="11.061" y="1177.24" width="113.84" height="128.616" stroke="#F5F5F5"/>
<rect x="144.38" y="1177.24" width="113.84" height="128.616" stroke="#F5F5F5"/>
<rect x="277.701" y="1177.24" width="113.84" height="128.616" stroke="#F5F5F5"/>
<rect x="411.021" y="1177.24" width="113.84" height="128.616" stroke="#F5F5F5"/>
<rect x="544.341" y="1177.24" width="113.84" height="128.616" stroke="#F5F5F5"/>
<rect x="677.661" y="1177.24" width="113.84" height="128.616" stroke="#F5F5F5"/>
<rect x="11.061" y="1324.33" width="113.84" height="128.616" stroke="#F5F5F5"/>
<rect x="144.38" y="1324.33" width="113.84" height="128.616" stroke="#F5F5F5"/>
<rect x="277.701" y="1324.33" width="113.84" height="128.616" stroke="#F5F5F5"/>
<rect x="411.021" y="1324.33" width="113.84" height="128.616" stroke="#F5F5F5"/>
<rect x="544.341" y="1324.33" width="113.84" height="128.616" stroke="#F5F5F5"/>
<rect x="677.661" y="1324.33" width="113.84" height="128.616" stroke="#F5F5F5"/>
<rect x="11.061" y="1471.42" width="113.84" height="128.616" stroke="#F5F5F5"/>
<rect x="144.38" y="1471.42" width="113.84" height="128.616" stroke="#F5F5F5"/>
<rect x="277.701" y="1471.42" width="113.84" height="128.616" stroke="#F5F5F5"/>
<rect x="411.021" y="1471.42" width="113.84" height="128.616" stroke="#F5F5F5"/>
<rect x="544.341" y="1471.42" width="113.84" height="128.616" stroke="#F5F5F5"/>
<rect x="677.661" y="1471.42" width="113.84" height="128.616" stroke="#F5F5F5"/>
<rect x="11.061" y="1618.51" width="113.84" height="128.616" stroke="#F5F5F5"/>
<rect x="144.38" y="1618.51" width="113.84" height="128.616" stroke="#F5F5F5"/>
<rect x="277.701" y="1618.51" width="113.84" height="128.616" stroke="#F5F5F5"/>
<rect x="411.021" y="1618.51" width="113.84" height="128.616" stroke="#F5F5F5"/>
<rect x="544.341" y="1618.51" width="113.84" height="128.616" stroke="#F5F5F5"/>
<rect x="677.661" y="1618.51" width="113.84" height="128.616" stroke="#F5F5F5"/>
</g>
</svg>
