<svg width="226" height="226" viewBox="0 0 226 226" fill="none" xmlns="http://www.w3.org/2000/svg">
<path d="M64.5991 173.501L69.2769 167.63L69.9534 168.169L65.2756 174.04L64.5991 173.501Z" fill="white"/>
<path d="M61.9468 160.674C62.3159 161.071 62.5466 161.496 62.6388 161.947C62.7276 162.398 62.6858 162.849 62.5136 163.299C62.3379 163.749 62.0387 164.17 61.6162 164.562C61.1936 164.955 60.7497 165.223 60.2844 165.369C59.8156 165.514 59.362 165.532 58.9234 165.422C58.4814 165.312 58.0875 165.071 57.7416 164.699C57.5421 164.484 57.3809 164.239 57.258 163.963C57.1351 163.687 57.0744 163.388 57.0759 163.066C57.0756 162.746 57.1597 162.413 57.3281 162.067C57.4966 161.72 57.7733 161.368 58.1582 161.011L58.4268 160.761L61.3798 163.941L60.8319 164.45L58.4775 161.915C58.2447 162.131 58.0803 162.37 57.9841 162.633C57.8862 162.894 57.8635 163.159 57.9158 163.427C57.9665 163.693 58.0982 163.941 58.311 164.17C58.5455 164.423 58.811 164.583 59.1076 164.651C59.4007 164.719 59.6924 164.71 59.9826 164.624C60.2728 164.538 60.5316 164.389 60.759 164.178L61.1242 163.839C61.4358 163.549 61.65 163.25 61.7669 162.942C61.8803 162.633 61.9037 162.33 61.8369 162.031C61.7683 161.735 61.6152 161.459 61.3774 161.203C61.2228 161.036 61.0598 160.907 60.8886 160.816C60.7139 160.725 60.5333 160.674 60.347 160.664C60.1589 160.655 59.9682 160.691 59.7751 160.77L59.3784 159.998C59.6459 159.869 59.9291 159.808 60.228 159.814C60.5251 159.822 60.8215 159.897 61.1171 160.039C61.4108 160.183 61.6874 160.395 61.9468 160.674Z" fill="white"/>
<path d="M49.9928 154.78L50.5983 154.367L52.2428 156.777L51.6373 157.19L49.9928 154.78ZM50.0439 157.248L49.5563 156.534L53.9886 153.509C54.1904 153.371 54.3218 153.239 54.3828 153.111C54.4404 152.983 54.4546 152.861 54.4256 152.745C54.3932 152.628 54.3411 152.517 54.2695 152.412C54.2158 152.333 54.1677 152.272 54.1252 152.227C54.0807 152.183 54.045 152.148 54.0183 152.122L54.561 151.539C54.6122 151.575 54.6765 151.63 54.7539 151.704C54.8333 151.777 54.9185 151.881 55.0094 152.014C55.1471 152.216 55.2387 152.443 55.2841 152.696C55.3282 152.947 55.3048 153.197 55.2139 153.445C55.1217 153.691 54.9404 153.907 54.6699 154.091L50.0439 157.248Z" fill="white"/>
<path d="M43.0329 146.255L43.6271 145.968C43.8076 145.881 44.0161 145.821 44.2527 145.789C44.4859 145.755 44.7286 145.754 44.9805 145.788C45.2292 145.82 45.4665 145.89 45.6922 145.998L45.5526 146.586C45.2876 146.543 45.024 146.522 44.7617 146.524C44.4961 146.524 44.2412 146.583 43.9969 146.701L43.3894 146.994L43.0329 146.255Z" fill="white"/>
<path d="M41.4486 133.204L41.8881 133.882C41.7788 133.967 41.6798 134.073 41.5912 134.2C41.4995 134.325 41.439 134.477 41.4095 134.655C41.3801 134.833 41.4025 135.042 41.4768 135.282C41.5785 135.611 41.7391 135.862 41.9586 136.035C42.1751 136.206 42.3989 136.256 42.63 136.184C42.8355 136.121 42.9747 135.996 43.0476 135.81C43.1205 135.624 43.1476 135.359 43.1289 135.017L43.0784 134.158C43.0465 133.641 43.1144 133.228 43.282 132.918C43.4473 132.608 43.7179 132.396 44.0938 132.28C44.402 132.184 44.7049 132.188 45.0025 132.29C45.2994 132.391 45.5665 132.577 45.804 132.848C46.0414 133.12 46.2247 133.465 46.3537 133.883C46.5232 134.432 46.5444 134.923 46.4174 135.356C46.2903 135.789 46.0127 136.124 45.5847 136.361L45.1463 135.637C45.4127 135.473 45.5862 135.265 45.6668 135.012C45.7466 134.757 45.7342 134.461 45.6297 134.122C45.5107 133.737 45.3345 133.456 45.1011 133.28C44.8647 133.103 44.6309 133.05 44.3998 133.121C44.213 133.179 44.0768 133.292 43.9911 133.462C43.9031 133.633 43.8694 133.863 43.89 134.153L43.9568 135.115C43.9922 135.643 43.9231 136.061 43.7494 136.368C43.5726 136.673 43.2986 136.883 42.9274 136.998C42.6239 137.091 42.3291 137.089 42.0429 136.991C41.7561 136.89 41.5004 136.712 41.2757 136.457C41.0503 136.199 40.8792 135.881 40.7624 135.503C40.598 134.971 40.5856 134.517 40.7253 134.141C40.8643 133.763 41.1054 133.451 41.4486 133.204Z" fill="white"/>
<path d="M43.1629 112.904C43.1631 113.432 43.0387 113.887 42.7896 114.268C42.5405 114.649 42.1973 114.943 41.76 115.148C41.3228 115.354 40.8231 115.456 40.2611 115.457C39.6893 115.457 39.1847 115.352 38.7472 115.142C38.3073 114.93 37.9639 114.634 37.717 114.255C37.4676 113.874 37.3428 113.43 37.3426 112.921C37.3424 112.526 37.4156 112.169 37.5621 111.851C37.7085 111.533 37.9137 111.273 38.1775 111.07C38.4413 110.867 38.7491 110.741 39.101 110.692L39.1013 111.557C38.8448 111.623 38.6176 111.77 38.4198 111.997C38.2195 112.222 38.1194 112.525 38.1196 112.906C38.1197 113.244 38.2078 113.539 38.3838 113.793C38.5574 114.045 38.8031 114.242 39.1208 114.383C39.4361 114.522 39.8063 114.592 40.2314 114.592C40.6664 114.591 41.0451 114.523 41.3676 114.386C41.69 114.247 41.9404 114.051 42.1187 113.799C42.297 113.545 42.386 113.247 42.3859 112.905C42.3858 112.68 42.3466 112.476 42.2684 112.293C42.1901 112.109 42.0776 111.954 41.931 111.827C41.7843 111.7 41.6084 111.61 41.4031 111.556L41.4027 110.691C41.7351 110.74 42.0344 110.861 42.3009 111.054C42.5648 111.244 42.7751 111.497 42.9316 111.812C43.0856 112.125 43.1628 112.489 43.1629 112.904Z" fill="white"/>
<path d="M43.9034 102.857C43.8279 103.359 43.642 103.782 43.3458 104.126C43.0499 104.467 42.6709 104.711 42.2089 104.859C41.7471 105.005 41.2288 105.034 40.6537 104.948C40.0737 104.861 39.5833 104.68 39.1824 104.404C38.7818 104.127 38.4903 103.781 38.3077 103.368C38.1255 102.953 38.0722 102.494 38.1478 101.992C38.2233 101.489 38.409 101.067 38.7049 100.726C39.0011 100.383 39.3813 100.138 39.8454 99.9933C40.3099 99.8457 40.8321 99.8154 41.412 99.9026C41.9871 99.989 42.4737 100.171 42.8719 100.448C43.2704 100.723 43.5607 101.068 43.7429 101.483C43.9255 101.896 43.979 102.354 43.9034 102.857ZM43.1351 102.741C43.1924 102.359 43.1418 102.031 42.9831 101.755C42.8244 101.479 42.5945 101.258 42.2934 101.091C41.9922 100.925 41.6556 100.814 41.2835 100.758C40.9113 100.702 40.5557 100.709 40.2165 100.779C39.8774 100.849 39.5902 100.993 39.355 101.209C39.1198 101.426 38.9735 101.725 38.9161 102.107C38.8588 102.489 38.9106 102.818 39.0717 103.094C39.2328 103.37 39.4651 103.592 39.7687 103.759C40.0723 103.925 40.4101 104.037 40.7822 104.093C41.1544 104.148 41.5088 104.141 41.8455 104.071C42.1823 104 42.4671 103.857 42.6998 103.639C42.9326 103.422 43.0777 103.123 43.1351 102.741Z" fill="white"/>
<path d="M42.421 92.9934L45.6576 93.9903L45.403 94.8169L40.0227 93.1597L40.2687 92.3611L41.1094 92.62L41.1309 92.55C40.8966 92.3397 40.736 92.0806 40.6493 91.7727C40.5603 91.464 40.5784 91.1065 40.7036 90.7002C40.8158 90.3359 40.9887 90.0402 41.2223 89.813C41.4536 89.5851 41.7432 89.4416 42.0912 89.3826C42.4368 89.3229 42.8385 89.3635 43.2962 89.5045L46.715 90.5575L46.4603 91.3842L43.0976 90.3484C42.675 90.2182 42.3119 90.2266 42.0084 90.3734C41.7026 90.5196 41.4908 90.7841 41.3728 91.1671C41.2915 91.431 41.2761 91.6845 41.3265 91.9276C41.3776 92.1683 41.4946 92.382 41.6774 92.5687C41.8602 92.7554 42.1081 92.897 42.421 92.9934Z" fill="white"/>
<path d="M46.1927 82.6934L49.2445 84.1616L48.8695 84.9411L43.7963 82.5005L44.1586 81.7474L44.9513 82.1288L44.9831 82.0627C44.7826 81.8199 44.6625 81.5398 44.6227 81.2223C44.5807 80.9039 44.6518 80.553 44.8362 80.1699C45.0014 79.8264 45.2165 79.5597 45.4813 79.3699C45.744 79.179 46.0518 79.0803 46.4047 79.0739C46.7554 79.0663 47.1465 79.1664 47.5781 79.374L50.8017 80.9248L50.4267 81.7043L47.2559 80.1789C46.8574 79.9872 46.4971 79.9413 46.1752 80.0413C45.851 80.1402 45.6021 80.3702 45.4283 80.7314C45.3086 80.9802 45.2556 81.2285 45.2692 81.4764C45.2839 81.7221 45.3677 81.9509 45.5207 82.1627C45.6736 82.3746 45.8976 82.5515 46.1927 82.6934Z" fill="white"/>
<path d="M55.1948 73.8066C54.8894 74.255 54.527 74.5743 54.1076 74.7646C53.6876 74.9515 53.239 75.0111 52.7619 74.9433C52.2841 74.8721 51.8069 74.6742 51.3303 74.3495C50.8537 74.0249 50.4929 73.6519 50.2477 73.2306C50.0018 72.8059 49.8835 72.3676 49.8928 71.9157C49.9014 71.4603 50.0488 71.0226 50.3349 70.6026C50.5 70.3602 50.7034 70.1484 50.9451 69.9672C51.1869 69.7859 51.4646 69.6603 51.7784 69.5902C52.0902 69.5188 52.4338 69.5266 52.809 69.6137C53.1843 69.7009 53.589 69.8923 54.0232 70.1881L54.3261 70.3944L51.883 73.9809L51.265 73.56L53.2129 70.7005C52.9504 70.5216 52.6804 70.4146 52.4029 70.3792C52.1267 70.3419 51.8637 70.3786 51.6139 70.4893C51.3655 70.598 51.1532 70.7815 50.9771 71.04C50.7831 71.3248 50.686 71.6193 50.6857 71.9236C50.6847 72.2245 50.7584 72.5068 50.9069 72.7706C51.0554 73.0343 51.2579 73.2536 51.5144 73.4283L51.9264 73.7089C52.2777 73.9483 52.6169 74.0906 52.9438 74.1359C53.27 74.1778 53.571 74.133 53.8468 74.0016C54.1206 73.8688 54.3559 73.658 54.5526 73.3692C54.6805 73.1814 54.7698 72.9939 54.8205 72.8066C54.8705 72.616 54.8798 72.4287 54.8485 72.2447C54.8151 72.0594 54.7382 71.8814 54.6179 71.7108L55.2823 71.1522C55.467 71.3844 55.5898 71.6469 55.6506 71.9396C55.7093 72.231 55.7022 72.5366 55.6292 72.8564C55.5542 73.1749 55.4094 73.4916 55.1948 73.8066Z" fill="white"/>
<path d="M61.8838 65.4068C61.525 65.7939 61.1246 66.0425 60.6827 66.1525C60.2408 66.2626 59.7897 66.2442 59.3294 66.0974C58.8691 65.9505 58.4329 65.6861 58.0207 65.304C57.6014 64.9153 57.3028 64.4952 57.125 64.0437C56.947 63.5888 56.8962 63.1386 56.9727 62.693C57.0491 62.2441 57.2601 61.8332 57.6056 61.4605C57.8747 61.1702 58.171 60.9584 58.4945 60.8252C58.818 60.6919 59.1454 60.6406 59.4768 60.6713C59.8082 60.702 60.1196 60.819 60.4108 61.0224L59.8227 61.6567C59.5897 61.5307 59.3234 61.4837 59.0238 61.5158C58.724 61.5444 58.4446 61.6985 58.1854 61.978C57.9561 62.2253 57.8196 62.5019 57.7759 62.8079C57.732 63.1104 57.7784 63.4216 57.9149 63.7415C58.0514 64.0579 58.2755 64.3607 58.5873 64.6497C58.9063 64.9454 59.2305 65.1528 59.5601 65.2717C59.8913 65.3888 60.2079 65.4158 60.5098 65.3525C60.8134 65.2874 61.0814 65.1294 61.314 64.8786C61.4668 64.7137 61.5769 64.5375 61.6441 64.35C61.7114 64.1624 61.7345 63.9722 61.7133 63.7794C61.6922 63.5865 61.6247 63.4006 61.5107 63.2216L62.0988 62.5873C62.3092 62.8491 62.4465 63.1413 62.5106 63.4639C62.5745 63.7831 62.5567 64.1114 62.4571 64.4489C62.3573 64.7829 62.1662 65.1022 61.8838 65.4068Z" fill="white"/>
<path d="M66.667 53.2627L67.1243 53.8356L64.844 55.6556L64.3867 55.0826L66.667 53.2627ZM64.2099 53.498L64.886 52.9584L68.2333 57.1523C68.3857 57.3432 68.5277 57.4644 68.6593 57.5157C68.7913 57.5635 68.9141 57.5686 69.0279 57.531C69.1421 57.4899 69.2488 57.4297 69.3481 57.3504C69.4226 57.291 69.4806 57.2384 69.5223 57.1927C69.5624 57.145 69.5945 57.1069 69.6186 57.0783L70.2408 57.5758C70.2087 57.6296 70.1584 57.6979 70.09 57.7806C70.0231 57.8652 69.9267 57.9579 69.8006 58.0585C69.6097 58.2109 69.3897 58.3192 69.1408 58.3834C68.8939 58.4461 68.6432 58.4414 68.3887 58.3694C68.1362 58.2958 67.9078 58.1311 67.7035 57.8752L64.2099 53.498Z" fill="white"/>
<path d="M84.8628 40.8127L87.608 47.799L86.803 48.1154L84.0578 41.129L84.8628 40.8127Z" fill="white"/>
<path d="M97.2978 44.9296C96.769 45.0505 96.2862 45.0381 95.8493 44.8924C95.4143 44.7437 95.0449 44.4822 94.7413 44.108C94.4395 43.7309 94.2243 43.2612 94.0957 42.6991C93.9672 42.1369 93.9563 41.618 94.0631 41.1424C94.1718 40.6639 94.3832 40.2622 94.6974 39.9371C95.0134 39.6092 95.4192 39.3886 95.9146 39.2753C96.2004 39.2099 96.4936 39.193 96.7941 39.2246C97.0946 39.2561 97.3837 39.3529 97.6613 39.515C97.9385 39.6747 98.185 39.9141 98.4008 40.2332C98.6167 40.5524 98.7832 40.968 98.9003 41.4801L98.982 41.8374L94.7516 42.8048L94.5849 42.0759L97.9578 41.3046C97.887 40.9949 97.7618 40.7328 97.5824 40.5182C97.4054 40.303 97.1877 40.151 96.9292 40.0622C96.6732 39.9729 96.3927 39.963 96.0878 40.0328C95.752 40.1096 95.4804 40.2594 95.2732 40.4822C95.0678 40.7022 94.9299 40.9593 94.8593 41.2536C94.7888 41.548 94.7881 41.8464 94.8573 42.149L94.9684 42.6349C95.0632 43.0493 95.215 43.3843 95.4238 43.6399C95.6344 43.8925 95.8856 44.0644 96.1771 44.1557C96.4682 44.2445 96.784 44.25 97.1246 44.1721C97.3461 44.1215 97.5391 44.0447 97.7036 43.9419C97.8699 43.8362 98.0042 43.7053 98.1063 43.5491C98.2079 43.3905 98.2727 43.2077 98.3005 43.0008L99.1675 43.0432C99.1449 43.3392 99.0564 43.6151 98.9018 43.871C98.7467 44.1245 98.5337 44.3437 98.2626 44.5285C97.991 44.7109 97.6694 44.8446 97.2978 44.9296Z" fill="white"/>
<path d="M108.379 37.5236L108.434 38.2546L105.525 38.4738L105.47 37.7428L108.379 37.5236ZM106.216 36.334L107.079 36.269L107.482 41.6197C107.5 41.8633 107.55 42.0434 107.629 42.1599C107.711 42.2738 107.81 42.3472 107.925 42.3802C108.043 42.4106 108.165 42.421 108.292 42.4114C108.387 42.4043 108.464 42.3935 108.524 42.3792C108.584 42.3624 108.632 42.349 108.668 42.3389L108.902 43.1005C108.845 43.1269 108.765 43.155 108.662 43.1848C108.559 43.217 108.427 43.2392 108.267 43.2513C108.023 43.2697 107.78 43.2353 107.538 43.1482C107.299 43.0608 107.095 42.9157 106.925 42.7129C106.758 42.5098 106.662 42.2451 106.637 41.9186L106.216 36.334Z" fill="white"/>
<path d="M119.242 35.7585L119.193 36.4164C119.178 36.6162 119.125 36.8267 119.035 37.0479C118.948 37.2668 118.827 37.4771 118.672 37.6787C118.52 37.8781 118.341 38.0485 118.134 38.1899L117.695 37.7749C117.865 37.5671 118.015 37.3491 118.144 37.1211C118.277 36.8909 118.353 36.6405 118.373 36.37L118.423 35.6975L119.242 35.7585Z" fill="white"/>
<path d="M131.337 40.9124L130.53 40.9542C130.511 40.8171 130.469 40.6784 130.403 40.5381C130.34 40.396 130.239 40.2677 130.1 40.1532C129.961 40.0388 129.768 39.9536 129.523 39.8977C129.187 39.8212 128.889 39.8348 128.63 39.9387C128.374 40.0407 128.219 40.2096 128.165 40.4455C128.117 40.6551 128.156 40.8381 128.281 40.9943C128.405 41.1505 128.621 41.3061 128.926 41.4609L129.695 41.8466C130.159 42.0776 130.483 42.3431 130.668 42.6433C130.853 42.9412 130.902 43.2819 130.815 43.6654C130.743 43.9799 130.589 44.2404 130.351 44.4469C130.116 44.654 129.821 44.7924 129.467 44.8621C129.113 44.9317 128.723 44.918 128.296 44.8208C127.736 44.6933 127.301 44.4662 126.989 44.1396C126.677 43.813 126.526 43.4051 126.535 42.9159L127.381 42.8982C127.39 43.211 127.483 43.4654 127.662 43.6614C127.843 43.8579 128.106 43.9956 128.451 44.0743C128.844 44.1638 129.175 44.1515 129.444 44.0374C129.716 43.9214 129.879 43.7455 129.933 43.5097C129.976 43.3191 129.946 43.1443 129.842 42.9852C129.738 42.8238 129.556 42.6794 129.294 42.5521L128.428 42.1293C127.953 41.8957 127.625 41.6269 127.446 41.323C127.271 41.0173 127.226 40.675 127.312 40.2962C127.383 39.9865 127.532 39.7323 127.76 39.5337C127.991 39.3356 128.273 39.2032 128.606 39.1363C128.942 39.07 129.303 39.0808 129.689 39.1687C130.232 39.2924 130.632 39.5087 130.887 39.8175C131.145 40.1269 131.295 40.4918 131.337 40.9124Z" fill="white"/>
<path d="M148.059 52.5454C147.602 52.2816 147.27 51.9466 147.065 51.5403C146.859 51.1339 146.777 50.69 146.817 50.2086C146.858 49.7272 147.019 49.243 147.3 48.7562C147.585 48.2609 147.929 47.8764 148.329 47.6025C148.733 47.3277 149.161 47.1781 149.612 47.1535C150.067 47.1281 150.514 47.2423 150.955 47.4963C151.297 47.6941 151.57 47.9358 151.772 48.2215C151.974 48.5072 152.096 48.815 152.14 49.145C152.184 49.4749 152.139 49.8045 152.006 50.1337L151.257 49.7015C151.328 49.4463 151.314 49.1762 151.216 48.8912C151.122 48.6053 150.909 48.3671 150.579 48.1767C150.287 48.0082 149.987 47.9367 149.679 47.9621C149.374 47.9866 149.081 48.1011 148.8 48.3054C148.521 48.5089 148.276 48.7947 148.064 49.163C147.846 49.5398 147.716 49.902 147.674 50.2498C147.633 50.5988 147.677 50.9134 147.806 51.1937C147.937 51.4751 148.151 51.7013 148.447 51.8723C148.642 51.9846 148.838 52.0527 149.036 52.0765C149.234 52.1003 149.425 52.0805 149.608 52.017C149.791 51.9535 149.957 51.8463 150.107 51.6953L150.856 52.1275C150.647 52.3909 150.393 52.5898 150.093 52.7241C149.796 52.8574 149.472 52.9131 149.121 52.8911C148.773 52.8681 148.419 52.7529 148.059 52.5454Z" fill="white"/>
<path d="M156.391 58.212C155.993 57.8953 155.72 57.5228 155.57 57.0946C155.423 56.6678 155.401 56.2174 155.504 55.7432C155.609 55.2706 155.842 54.8069 156.205 54.3521C156.57 53.8934 156.972 53.5593 157.411 53.3497C157.852 53.1416 158.296 53.0618 158.745 53.1101C159.196 53.16 159.62 53.3433 160.018 53.66C160.415 53.9768 160.688 54.3485 160.835 54.7752C160.984 55.2035 161.006 55.6549 160.899 56.1294C160.795 56.6055 160.56 57.0728 160.195 57.5315C159.832 57.9863 159.431 58.3168 158.992 58.5229C158.555 58.7306 158.111 58.8095 157.66 58.7597C157.211 58.7113 156.788 58.5288 156.391 58.212ZM156.875 57.6043C157.177 57.8449 157.487 57.9655 157.805 57.966C158.123 57.9665 158.43 57.878 158.725 57.7003C159.019 57.5227 159.284 57.2867 159.518 56.9924C159.753 56.6981 159.924 56.3866 160.033 56.0578C160.142 55.7291 160.162 55.4087 160.092 55.0966C160.021 54.7846 159.835 54.5083 159.534 54.2677C159.232 54.0271 158.921 53.9075 158.601 53.9089C158.281 53.9103 157.973 54.0008 157.677 54.1803C157.381 54.3599 157.116 54.5968 156.881 54.8911C156.647 55.1854 156.476 55.496 156.368 55.8228C156.261 56.1497 156.243 56.4682 156.315 56.7783C156.386 57.0884 156.573 57.3638 156.875 57.6043Z" fill="white"/>
<path d="M165.673 61.8597L163.191 64.1642L162.603 63.5303L166.728 59.6994L167.297 60.3118L166.652 60.9104L166.702 60.9641C167.001 60.8662 167.306 60.8568 167.616 60.9357C167.928 61.0129 168.228 61.2073 168.517 61.5189C168.777 61.7982 168.947 62.0958 169.026 62.4117C169.108 62.726 169.088 63.0485 168.965 63.3794C168.844 63.7086 168.608 64.0361 168.257 64.362L165.635 66.7962L165.047 66.1624L167.625 63.7681C167.949 63.4671 168.123 63.1485 168.148 62.8123C168.174 62.4744 168.051 62.1586 167.779 61.865C167.591 61.6626 167.379 61.5225 167.143 61.4447C166.909 61.3686 166.665 61.363 166.412 61.428C166.159 61.493 165.913 61.6369 165.673 61.8597Z" fill="white"/>
<path d="M172.708 70.2758L169.911 72.1847L169.423 71.4702L174.073 68.2969L174.544 68.9872L173.818 69.483L173.859 69.5436C174.17 69.4914 174.472 69.5275 174.767 69.6517C175.064 69.7745 175.332 70.0116 175.572 70.3628C175.787 70.6776 175.91 70.9972 175.942 71.3215C175.976 71.6444 175.908 71.9603 175.737 72.2691C175.568 72.5766 175.286 72.8653 174.89 73.1353L171.935 75.1516L171.448 74.4371L174.354 72.4539C174.72 72.2046 174.939 71.9155 175.014 71.5867C175.09 71.2565 175.015 70.9259 174.79 70.5949C174.634 70.3668 174.445 70.1967 174.224 70.0845C174.004 69.9744 173.764 69.9326 173.504 69.9591C173.244 69.9857 172.979 70.0912 172.708 70.2758Z" fill="white"/>
<path d="M175.904 82.515C175.668 82.0264 175.573 81.5529 175.618 81.0945C175.666 80.6373 175.839 80.219 176.136 79.8397C176.436 79.4616 176.846 79.1473 177.366 78.8969C177.885 78.6465 178.389 78.5204 178.876 78.5187C179.367 78.5181 179.806 78.6349 180.193 78.8689C180.583 79.104 180.888 79.4505 181.109 79.9083C181.236 80.1724 181.318 80.4545 181.354 80.7544C181.39 81.0544 181.36 81.3578 181.264 81.6646C181.17 81.9703 180.991 82.2639 180.728 82.5454C180.465 82.8268 180.097 83.0816 179.623 83.3097L179.293 83.4689L177.409 79.5598L178.082 79.2351L179.585 82.3518C179.871 82.2139 180.099 82.0335 180.268 81.8109C180.438 81.5904 180.538 81.3443 180.567 81.0726C180.597 80.8031 180.544 80.5275 180.409 80.2457C180.259 79.9354 180.053 79.704 179.789 79.5515C179.529 79.4002 179.248 79.323 178.945 79.3197C178.642 79.3164 178.351 79.3821 178.072 79.5169L177.623 79.7334C177.24 79.918 176.947 80.1405 176.744 80.401C176.545 80.6626 176.433 80.9456 176.409 81.2502C176.387 81.5537 176.452 81.8628 176.604 82.1776C176.702 82.3823 176.82 82.5534 176.957 82.6909C177.097 82.8295 177.255 82.9312 177.43 82.9961C177.607 83.0598 177.799 83.0823 178.007 83.0634L178.159 83.918C177.865 83.9619 177.577 83.937 177.293 83.8432C177.011 83.7485 176.75 83.5895 176.51 83.3664C176.271 83.1422 176.069 82.8584 175.904 82.515Z" fill="white"/>
<path d="M179.833 92.5078C179.677 92.0035 179.662 91.5325 179.788 91.0947C179.914 90.6569 180.155 90.2755 180.512 89.9503C180.87 89.6251 181.317 89.3795 181.854 89.2136C182.4 89.0449 182.913 88.9964 183.393 89.068C183.876 89.1413 184.291 89.3225 184.639 89.6115C184.99 89.9022 185.24 90.2903 185.39 90.7759C185.507 91.1541 185.542 91.5166 185.496 91.8634C185.449 92.2101 185.33 92.5194 185.138 92.791C184.945 93.0627 184.688 93.2738 184.367 93.4243L184.111 92.5979C184.337 92.4591 184.511 92.252 184.633 91.9764C184.758 91.7025 184.764 91.3834 184.652 91.0192C184.552 90.6971 184.381 90.4405 184.138 90.2497C183.898 90.0604 183.605 89.9449 183.26 89.9033C182.918 89.8632 182.543 89.906 182.137 90.0315C181.722 90.1598 181.38 90.337 181.112 90.5629C180.845 90.7912 180.663 91.0519 180.567 91.345C180.472 91.6404 180.475 91.9516 180.576 92.2784C180.642 92.4932 180.739 92.6766 180.868 92.8286C180.997 92.9806 181.15 93.0957 181.328 93.1738C181.505 93.252 181.7 93.2864 181.912 93.2772L182.167 94.1037C181.836 94.1551 181.514 94.1278 181.202 94.022C180.894 93.9178 180.619 93.7382 180.376 93.4832C180.137 93.2298 179.956 92.9046 179.833 92.5078Z" fill="white"/>
<path d="M187.959 102.722L187.234 102.832L186.798 99.9468L187.523 99.8373L187.959 102.722ZM188.984 100.476L189.113 101.332L183.807 102.134C183.566 102.17 183.39 102.233 183.28 102.321C183.172 102.411 183.106 102.515 183.082 102.632C183.061 102.752 183.059 102.874 183.078 103C183.093 103.094 183.109 103.171 183.128 103.23C183.149 103.288 183.166 103.335 183.179 103.37L182.437 103.66C182.406 103.606 182.372 103.528 182.335 103.427C182.295 103.327 182.263 103.197 182.239 103.038C182.202 102.796 182.219 102.552 182.287 102.304C182.357 102.059 182.486 101.844 182.676 101.66C182.866 101.478 183.122 101.362 183.446 101.313L188.984 100.476Z" fill="white"/>
<path d="M189.643 124.706L182.22 123.59L182.348 122.735L189.771 123.851L189.643 124.706Z" fill="white"/>
<path d="M179.86 133.416C180.02 132.898 180.272 132.486 180.617 132.18C180.963 131.878 181.374 131.689 181.85 131.613C182.327 131.54 182.842 131.588 183.393 131.758C183.944 131.928 184.399 132.178 184.757 132.508C185.117 132.842 185.36 133.226 185.484 133.66C185.61 134.098 185.598 134.56 185.449 135.045C185.362 135.326 185.23 135.588 185.053 135.832C184.875 136.077 184.647 136.279 184.368 136.438C184.091 136.598 183.76 136.692 183.376 136.719C182.992 136.747 182.548 136.683 182.046 136.529L181.696 136.421L182.973 132.273L183.688 132.493L182.669 135.8C182.973 135.894 183.263 135.916 183.538 135.868C183.813 135.823 184.054 135.71 184.26 135.531C184.465 135.353 184.614 135.115 184.706 134.817C184.807 134.487 184.813 134.177 184.724 133.886C184.636 133.599 184.483 133.35 184.263 133.142C184.043 132.934 183.785 132.784 183.489 132.693L183.012 132.546C182.606 132.421 182.24 132.385 181.914 132.438C181.59 132.494 181.316 132.626 181.091 132.832C180.868 133.04 180.706 133.311 180.603 133.645C180.536 133.862 180.506 134.067 180.513 134.261C180.521 134.458 180.567 134.64 180.651 134.806C180.738 134.974 180.864 135.121 181.029 135.249L180.559 135.978C180.314 135.811 180.119 135.596 179.975 135.334C179.833 135.073 179.75 134.779 179.725 134.452C179.703 134.126 179.748 133.78 179.86 133.416Z" fill="white"/>
<path d="M180.733 146.716L180.072 146.398L181.337 143.769L181.998 144.086L180.733 146.716ZM182.844 145.437L182.469 146.217L177.634 143.891C177.414 143.785 177.233 143.737 177.093 143.748C176.953 143.762 176.84 143.811 176.754 143.894C176.669 143.981 176.599 144.081 176.544 144.196C176.502 144.282 176.473 144.354 176.455 144.414C176.44 144.474 176.427 144.522 176.418 144.558L175.642 144.38C175.647 144.318 175.663 144.234 175.689 144.13C175.712 144.025 175.759 143.9 175.829 143.754C175.935 143.534 176.086 143.341 176.282 143.175C176.477 143.012 176.705 142.907 176.966 142.862C177.225 142.818 177.503 142.868 177.798 143.01L182.844 145.437Z" fill="white"/>
<path d="M176.83 157.006L176.285 156.635C176.119 156.522 175.963 156.372 175.817 156.183C175.671 155.998 175.549 155.788 175.452 155.553C175.355 155.322 175.298 155.081 175.278 154.832L175.857 154.659C175.953 154.91 176.066 155.148 176.199 155.375C176.332 155.604 176.511 155.796 176.735 155.948L177.293 156.328L176.83 157.006Z" fill="white"/>
<path d="M166.32 164.903L166.687 164.184C166.815 164.236 166.956 164.269 167.111 164.282C167.265 164.298 167.427 164.275 167.595 164.212C167.764 164.148 167.934 164.024 168.105 163.84C168.34 163.587 168.476 163.322 168.516 163.046C168.556 162.773 168.487 162.554 168.31 162.39C168.152 162.244 167.974 162.186 167.777 162.215C167.579 162.245 167.337 162.354 167.05 162.541L166.331 163.015C165.899 163.301 165.507 163.449 165.155 163.458C164.804 163.47 164.485 163.342 164.196 163.075C163.96 162.855 163.812 162.591 163.751 162.282C163.69 161.975 163.717 161.651 163.834 161.309C163.951 160.967 164.158 160.636 164.455 160.316C164.846 159.894 165.26 159.631 165.699 159.524C166.137 159.418 166.566 159.491 166.986 159.743L166.578 160.484C166.302 160.336 166.035 160.29 165.776 160.346C165.516 160.404 165.265 160.563 165.024 160.823C164.75 161.119 164.595 161.412 164.559 161.702C164.524 161.995 164.595 162.224 164.772 162.389C164.916 162.522 165.082 162.583 165.272 162.572C165.463 162.563 165.68 162.477 165.921 162.314L166.72 161.776C167.16 161.481 167.557 161.332 167.909 161.329C168.262 161.329 168.581 161.461 168.866 161.726C169.099 161.942 169.244 162.198 169.302 162.495C169.358 162.794 169.332 163.104 169.223 163.426C169.113 163.75 168.923 164.058 168.654 164.348C168.275 164.756 167.888 164.994 167.493 165.061C167.096 165.13 166.705 165.077 166.32 164.903Z" fill="white"/>
<path d="M147.883 173.569C148.34 173.305 148.796 173.185 149.251 173.21C149.706 173.235 150.131 173.386 150.528 173.662C150.924 173.938 151.263 174.319 151.544 174.806C151.83 175.301 151.992 175.79 152.029 176.274C152.065 176.761 151.981 177.206 151.776 177.61C151.571 178.016 151.248 178.347 150.808 178.601C150.465 178.799 150.12 178.914 149.771 178.946C149.423 178.978 149.095 178.93 148.787 178.803C148.48 178.676 148.217 178.473 147.998 178.193L148.747 177.76C148.933 177.949 149.173 178.072 149.469 178.13C149.764 178.191 150.077 178.126 150.407 177.935C150.699 177.767 150.911 177.543 151.043 177.263C151.174 176.987 151.221 176.676 151.185 176.33C151.148 175.987 151.023 175.632 150.81 175.264C150.592 174.887 150.344 174.594 150.064 174.383C149.782 174.173 149.487 174.054 149.18 174.026C148.871 173.998 148.568 174.07 148.272 174.242C148.077 174.354 147.92 174.49 147.801 174.649C147.681 174.809 147.603 174.984 147.566 175.174C147.53 175.365 147.54 175.562 147.596 175.767L146.847 176.2C146.723 175.888 146.678 175.568 146.712 175.241C146.745 174.917 146.858 174.608 147.053 174.315C147.247 174.025 147.524 173.777 147.883 173.569Z" fill="white"/>
<path d="M138.81 177.952C139.283 177.766 139.743 177.715 140.188 177.8C140.631 177.886 141.033 178.092 141.392 178.418C141.749 178.745 142.034 179.179 142.246 179.721C142.461 180.266 142.549 180.782 142.511 181.266C142.471 181.752 142.318 182.177 142.051 182.542C141.783 182.907 141.412 183.183 140.939 183.369C140.466 183.555 140.008 183.605 139.565 183.519C139.119 183.434 138.717 183.227 138.36 182.898C138 182.569 137.712 182.132 137.498 181.586C137.285 181.045 137.199 180.533 137.24 180.049C137.279 179.567 137.433 179.143 137.701 178.777C137.968 178.413 138.337 178.138 138.81 177.952ZM139.095 178.675C138.735 178.816 138.476 179.024 138.316 179.3C138.157 179.575 138.08 179.885 138.087 180.229C138.093 180.573 138.165 180.92 138.303 181.27C138.44 181.62 138.624 181.925 138.855 182.183C139.085 182.442 139.353 182.619 139.658 182.714C139.963 182.81 140.296 182.787 140.655 182.646C141.014 182.504 141.273 182.295 141.432 182.017C141.591 181.74 141.666 181.428 141.659 181.082C141.651 180.735 141.579 180.387 141.441 180.037C141.304 179.687 141.12 179.383 140.891 179.127C140.661 178.871 140.394 178.696 140.09 178.603C139.786 178.51 139.454 178.534 139.095 178.675Z" fill="white"/>
<path d="M131.01 184.167L130.255 180.865L131.099 180.672L132.354 186.16L131.539 186.347L131.343 185.489L131.271 185.505C131.207 185.814 131.062 186.082 130.839 186.311C130.616 186.543 130.298 186.706 129.883 186.8C129.512 186.885 129.169 186.884 128.855 186.795C128.542 186.709 128.273 186.529 128.048 186.258C127.824 185.988 127.658 185.62 127.551 185.153L126.754 181.666L127.597 181.473L128.382 184.903C128.48 185.334 128.669 185.644 128.948 185.834C129.227 186.026 129.562 186.077 129.953 185.987C130.222 185.926 130.449 185.813 130.635 185.647C130.818 185.483 130.944 185.275 131.014 185.023C131.085 184.771 131.083 184.486 131.01 184.167Z" fill="white"/>
<path d="M120.204 186.051L119.949 182.674L120.812 182.609L121.235 188.223L120.401 188.286L120.335 187.409L120.262 187.414C120.152 187.709 119.97 187.953 119.715 188.146C119.46 188.342 119.12 188.456 118.696 188.488C118.316 188.516 117.978 188.464 117.681 188.329C117.384 188.197 117.145 187.98 116.963 187.677C116.781 187.378 116.672 186.989 116.636 186.511L116.367 182.944L117.23 182.879L117.494 186.388C117.528 186.829 117.668 187.164 117.916 187.393C118.163 187.624 118.487 187.724 118.887 187.694C119.162 187.674 119.404 187.595 119.611 187.46C119.817 187.324 119.973 187.137 120.08 186.899C120.187 186.66 120.228 186.378 120.204 186.051Z" fill="white"/>
<path d="M108.007 182.697C108.548 182.737 109.006 182.891 109.38 183.159C109.752 183.43 110.028 183.788 110.208 184.236C110.385 184.685 110.452 185.197 110.409 185.772C110.367 186.347 110.224 186.846 109.982 187.269C109.737 187.694 109.416 188.016 109.02 188.234C108.622 188.454 108.169 188.545 107.662 188.508C107.37 188.486 107.085 188.416 106.807 188.297C106.529 188.178 106.281 188 106.064 187.764C105.846 187.529 105.681 187.228 105.569 186.859C105.457 186.491 105.42 186.045 105.459 185.521L105.486 185.155L109.814 185.478L109.758 186.223L106.308 185.966C106.284 186.283 106.327 186.57 106.435 186.828C106.541 187.086 106.704 187.296 106.925 187.457C107.143 187.618 107.408 187.71 107.72 187.733C108.064 187.758 108.367 187.695 108.631 187.543C108.892 187.394 109.1 187.189 109.254 186.928C109.408 186.668 109.497 186.383 109.52 186.073L109.557 185.576C109.588 185.152 109.542 184.787 109.418 184.482C109.291 184.178 109.102 183.94 108.85 183.767C108.598 183.596 108.298 183.498 107.949 183.472C107.723 183.455 107.516 183.471 107.328 183.521C107.138 183.573 106.971 183.659 106.828 183.778C106.684 183.899 106.568 184.055 106.48 184.244L105.664 183.948C105.773 183.672 105.939 183.435 106.162 183.236C106.385 183.039 106.653 182.893 106.967 182.796C107.28 182.702 107.627 182.669 108.007 182.697Z" fill="white"/>
<path d="M97.388 181.104C97.9026 181.221 98.3181 181.444 98.6344 181.771C98.9507 182.099 99.1603 182.499 99.2633 182.971C99.3662 183.443 99.3553 183.953 99.2305 184.501C99.1035 185.058 98.8889 185.527 98.5869 185.907C98.2819 186.288 97.9174 186.557 97.4933 186.714C97.0663 186.872 96.605 186.895 96.1095 186.782C95.7235 186.694 95.392 186.543 95.1148 186.33C94.8377 186.116 94.6295 185.859 94.4904 185.556C94.3513 185.254 94.297 184.926 94.3275 184.572L95.1709 184.764C95.1782 185.029 95.2707 185.283 95.4483 185.526C95.6229 185.772 95.8961 185.937 96.2678 186.021C96.5965 186.096 96.9044 186.076 97.1912 185.961C97.4751 185.848 97.7215 185.652 97.9302 185.374C98.136 185.097 98.2861 184.752 98.3806 184.337C98.4772 183.913 98.4946 183.529 98.4328 183.184C98.3687 182.839 98.2337 182.551 98.028 182.321C97.8198 182.091 97.549 181.938 97.2154 181.862C96.9962 181.812 96.7886 181.804 96.5926 181.84C96.3965 181.875 96.2203 181.951 96.0638 182.065C95.9074 182.18 95.7801 182.331 95.6821 182.52L94.8387 182.328C94.9602 182.014 95.1446 181.749 95.392 181.533C95.6364 181.318 95.9297 181.169 96.2718 181.086C96.6109 181.006 96.983 181.012 97.388 181.104Z" fill="white"/>
<path d="M84.4791 183.035L84.7466 182.352L87.4629 183.417L87.1953 184.1L84.4791 183.035ZM85.9114 185.045L85.1061 184.729L87.0644 179.734C87.1536 179.506 87.1875 179.323 87.1661 179.183C87.1416 179.045 87.0845 178.936 86.995 178.856C86.9024 178.778 86.7969 178.715 86.6786 178.669C86.5899 178.634 86.5153 178.61 86.4549 178.597C86.3935 178.586 86.3445 178.577 86.3077 178.571L86.4275 177.783C86.4901 177.784 86.5743 177.794 86.6802 177.811C86.7869 177.827 86.9154 177.864 87.0655 177.923C87.293 178.012 87.4968 178.149 87.6768 178.332C87.8546 178.515 87.9759 178.734 88.0407 178.99C88.1033 179.246 88.0748 179.526 87.9553 179.831L85.9114 185.045Z" fill="white"/>
</svg>
