<svg width="433" height="64" viewBox="0 0 433 64" fill="none" xmlns="http://www.w3.org/2000/svg">
<path d="M106.967 23.5767C109.064 27.7967 114.625 28.1639 117.515 24.3479C118.672 22.817 118.833 19.9985 118.029 18.3388C116.667 15.5384 114.642 15.2515 112.618 14.9649C110.538 14.6705 108.46 14.3762 107.106 11.3572C106.825 10.7304 106.741 9.96651 106.652 9.14969C106.437 7.18595 106.189 4.91651 103.079 3.51193C102.052 3.04623 101.002 2.917 100.007 3.04871C99.0318 3.02457 98.0722 3.19159 97.3388 3.54696C94.5384 4.90821 94.2515 6.93372 93.9649 8.95783C93.6705 11.0372 93.3762 13.1151 90.3572 14.4698C89.7304 14.751 88.9665 14.8346 88.1497 14.9239C86.186 15.1387 83.9165 15.3869 82.5119 18.4961C80.3093 23.3567 85.6334 28.7106 90.4937 26.4778C93.6698 25.0166 93.883 23.0382 94.0958 21.0634C94.2318 19.8014 94.3676 18.5409 95.2764 17.4178C96.9552 15.3419 98.7101 15.1891 100.269 15.0694C100.35 15.0783 100.431 15.0871 100.512 15.0958C101.774 15.2318 103.035 15.3676 104.158 16.2764C106.253 17.9712 106.389 19.7435 106.51 21.3134C106.573 22.137 106.632 22.9049 106.967 23.5767Z" fill="#9E9898"/>
<path fill-rule="evenodd" clip-rule="evenodd" d="M6.94444 7.55556C6.94444 6.08213 7.52976 4.66905 8.57163 3.62718C9.6135 2.58532 11.0266 2 12.5 2C13.9734 2 15.3865 2.58532 16.4284 3.62718C17.4702 4.66905 18.0556 6.08213 18.0556 7.55556C18.0556 9.02898 17.4702 10.4421 16.4284 11.4839C15.3865 12.5258 13.9734 13.1111 12.5 13.1111C11.0266 13.1111 9.6135 12.5258 8.57163 11.4839C7.52976 10.4421 6.94444 9.02898 6.94444 7.55556ZM6.94444 15.8889C5.10266 15.8889 3.33632 16.6205 2.03398 17.9229C0.731645 19.2252 0 20.9916 0 22.8333C0 23.9384 0.438987 24.9982 1.22039 25.7796C2.00179 26.561 3.0616 27 4.16667 27H20.8333C21.9384 27 22.9982 26.561 23.7796 25.7796C24.561 24.9982 25 23.9384 25 22.8333C25 20.9916 24.2684 19.2252 22.966 17.9229C21.6637 16.6205 19.8973 15.8889 18.0556 15.8889H6.94444Z" fill="#9E9898"/>
<path fill-rule="evenodd" clip-rule="evenodd" d="M6.94444 42.5556C6.94444 41.0821 7.52976 39.6691 8.57163 38.6272C9.6135 37.5853 11.0266 37 12.5 37C13.9734 37 15.3865 37.5853 16.4284 38.6272C17.4702 39.6691 18.0556 41.0821 18.0556 42.5556C18.0556 44.029 17.4702 45.4421 16.4284 46.4839C15.3865 47.5258 13.9734 48.1111 12.5 48.1111C11.0266 48.1111 9.6135 47.5258 8.57163 46.4839C7.52976 45.4421 6.94444 44.029 6.94444 42.5556ZM6.94444 50.8889C5.10266 50.8889 3.33632 51.6205 2.03398 52.9229C0.731645 54.2252 0 55.9916 0 57.8333C0 58.9384 0.438987 59.9982 1.22039 60.7796C2.00179 61.561 3.0616 62 4.16667 62H20.8333C21.9384 62 22.9982 61.561 23.7796 60.7796C24.561 59.9982 25 58.9384 25 57.8333C25 55.9916 24.2684 54.2252 22.966 52.9229C21.6637 51.6205 19.8973 50.8889 18.0556 50.8889H6.94444Z" fill="#EAEAEA"/>
<path d="M148.418 2C156.057 2 162.307 6.97222 162.307 13.1111C162.307 19.25 156.057 24.2222 148.418 24.2222C146.696 24.2222 145.043 23.9722 143.515 23.5278C139.46 27 134.529 27 134.529 27C137.765 23.7639 138.279 21.5833 138.349 20.75C135.988 18.7639 134.529 16.0694 134.529 13.1111C134.529 6.97222 140.779 2 148.418 2Z" fill="#9E9898"/>
<path d="M148.418 37C156.057 37 162.307 41.9722 162.307 48.1111C162.307 54.25 156.057 59.2222 148.418 59.2222C146.696 59.2222 145.043 58.9722 143.515 58.5278C139.46 62 134.529 62 134.529 62C137.765 58.7639 138.279 56.5833 138.349 55.75C135.988 53.7639 134.529 51.0694 134.529 48.1111C134.529 41.9722 140.779 37 148.418 37Z" fill="#EAEAEA"/>
<path d="M54.0417 2.20005C53.8907 2.07095 53.6986 2 53.5 2C53.3014 2 53.1093 2.07095 52.9583 2.20005L41 12.45V24.5C41 25.163 41.2634 25.7989 41.7322 26.2678C42.2011 26.7366 42.837 27 43.5 27H50.1667C50.3877 27 50.5996 26.9122 50.7559 26.7559C50.9122 26.5996 51 26.3877 51 26.1667V21.1667C51 20.5036 51.2634 19.8678 51.7322 19.3989C52.2011 18.9301 52.837 18.6667 53.5 18.6667C54.163 18.6667 54.7989 18.9301 55.2678 19.3989C55.7366 19.8678 56 20.5036 56 21.1667V26.1667C56 26.3877 56.0878 26.5996 56.2441 26.7559C56.4004 26.9122 56.6123 27 56.8333 27H63.5C64.163 27 64.7989 26.7366 65.2678 26.2678C65.7366 25.7989 66 25.163 66 24.5V12.45L54.0417 2.20005Z" fill="#9E9898"/>
<path d="M54.0417 37.2001C53.8907 37.0709 53.6986 37 53.5 37C53.3014 37 53.1093 37.0709 52.9583 37.2001L41 47.45V59.5C41 60.163 41.2634 60.7989 41.7322 61.2678C42.2011 61.7366 42.837 62 43.5 62H50.1667C50.3877 62 50.5996 61.9122 50.7559 61.7559C50.9122 61.5996 51 61.3877 51 61.1667V56.1667C51 55.5036 51.2634 54.8678 51.7322 54.3989C52.2011 53.9301 52.837 53.6667 53.5 53.6667C54.163 53.6667 54.7989 53.9301 55.2678 54.3989C55.7366 54.8678 56 55.5036 56 56.1667V61.1667C56 61.3877 56.0878 61.5996 56.2441 61.7559C56.4004 61.9122 56.6123 62 56.8333 62H63.5C64.163 62 64.7989 61.7366 65.2678 61.2678C65.7366 60.7989 66 60.163 66 59.5V47.45L54.0417 37.2001Z" fill="#EAEAEA"/>
<path fill-rule="evenodd" clip-rule="evenodd" d="M178.739 2.3063C178.926 2.14424 179.156 2.04111 179.401 2.00997C179.646 1.97882 179.895 2.02105 180.116 2.13132L202.614 13.3802C202.822 13.4839 202.997 13.6435 203.12 13.8411C203.242 14.0387 203.307 14.2665 203.307 14.4989C203.307 14.7312 203.242 14.959 203.12 15.1566C202.997 15.3542 202.822 15.5138 202.614 15.6175L180.116 26.8664C179.895 26.9771 179.646 27.0196 179.401 26.9887C179.156 26.9578 178.925 26.8548 178.738 26.6928C178.551 26.5307 178.417 26.3169 178.352 26.0784C178.286 25.8399 178.293 25.5874 178.372 25.3528L181.574 15.7487H188.307C188.638 15.7487 188.956 15.6171 189.191 15.3827C189.425 15.1483 189.557 14.8303 189.557 14.4989C189.557 14.1674 189.425 13.8495 189.191 13.6151C188.956 13.3807 188.638 13.249 188.307 13.249H181.574L178.37 3.64492C178.293 3.41046 178.286 3.15817 178.351 2.91991C178.417 2.68165 178.552 2.46813 178.739 2.3063Z" fill="#9E9898"/>
<path fill-rule="evenodd" clip-rule="evenodd" d="M178.739 37.3063C178.926 37.1442 179.156 37.0411 179.401 37.01C179.646 36.9788 179.895 37.0211 180.116 37.1313L202.614 48.3802C202.822 48.4839 202.997 48.6435 203.12 48.8411C203.242 49.0387 203.307 49.2665 203.307 49.4989C203.307 49.7312 203.242 49.959 203.12 50.1566C202.997 50.3542 202.822 50.5138 202.614 50.6175L180.116 61.8664C179.895 61.9771 179.646 62.0196 179.401 61.9887C179.156 61.9578 178.925 61.8548 178.738 61.6928C178.551 61.5307 178.417 61.3169 178.352 61.0784C178.286 60.8399 178.293 60.5874 178.372 60.3528L181.574 50.7487H188.307C188.638 50.7487 188.956 50.6171 189.191 50.3827C189.425 50.1483 189.557 49.8303 189.557 49.4989C189.557 49.1674 189.425 48.8495 189.191 48.6151C188.956 48.3807 188.638 48.249 188.307 48.249H181.574L178.37 38.6449C178.293 38.4105 178.286 38.1582 178.351 37.9199C178.417 37.6817 178.552 37.4681 178.739 37.3063Z" fill="#EAEAEA"/>
<path d="M223.307 27.0002H231.307M235.307 12V14C235.307 18.4001 231.707 22.0001 227.307 22.0001M227.307 22.0001C222.907 22.0001 219.307 18.4001 219.307 14V12M227.307 22.0001V27.0002" stroke="#9E9898" stroke-width="2.4" stroke-linecap="round" stroke-linejoin="round"/>
<path d="M227.309 19.0003C226.649 18.9987 225.996 18.8646 225.389 18.6058C224.781 18.3471 224.232 17.969 223.774 17.494C222.836 16.5479 222.31 15.2699 222.309 13.9377V7.0001C222.306 6.34277 222.434 5.69142 222.684 5.08363C222.934 4.47584 223.303 3.92362 223.767 3.45881C224.232 2.994 224.784 2.6258 225.392 2.37543C226 2.12506 226.651 1.99748 227.309 2.00004C230.112 2.00004 232.309 4.19632 232.309 7.0001V13.9377C232.309 16.729 230.066 19.0003 227.309 19.0003Z" fill="#9E9898"/>
<path d="M223.307 62.0002H231.307M235.307 47V49C235.307 53.4001 231.707 57.0001 227.307 57.0001M227.307 57.0001C222.907 57.0001 219.307 53.4001 219.307 49V47M227.307 57.0001V62.0002" stroke="#EAEAEA" stroke-width="2.4" stroke-linecap="round" stroke-linejoin="round"/>
<path d="M227.309 54.0003C226.649 53.9987 225.996 53.8646 225.389 53.6058C224.781 53.3471 224.232 52.969 223.774 52.494C222.836 51.5479 222.31 50.2699 222.309 48.9377V42.0001C222.306 41.3428 222.434 40.6914 222.684 40.0836C222.934 39.4758 223.303 38.9236 223.767 38.4588C224.232 37.994 224.784 37.6258 225.392 37.3754C226 37.1251 226.651 36.9975 227.309 37C230.112 37 232.309 39.1963 232.309 42.0001V48.9377C232.309 51.729 230.066 54.0003 227.309 54.0003Z" fill="#EAEAEA"/>
<path fill-rule="evenodd" clip-rule="evenodd" d="M271.285 2.46939L275.881 7.06529C276.031 7.21455 276.151 7.39202 276.233 7.58756C276.315 7.7831 276.357 7.99287 276.358 8.20486C276.358 8.41685 276.317 8.62691 276.237 8.823C276.156 9.01909 276.038 9.19738 275.888 9.34766L273.333 11.9027L266.455 5.0244L269.01 2.46939C269.312 2.16876 269.721 2 270.147 2C270.574 2 270.983 2.16876 271.285 2.46939ZM251.344 25.0438L252.824 18.6563L265.116 6.34863L272.002 13.2191L259.663 25.5112L253.237 26.9912C253.125 27.0033 253.013 27.0033 252.902 26.9912C252.663 26.9898 252.427 26.935 252.212 26.8308C251.997 26.7266 251.808 26.5757 251.658 26.389C251.509 26.2024 251.403 25.9847 251.349 25.752C251.294 25.5193 251.293 25.2773 251.344 25.0438Z" fill="#9E9898"/>
<path fill-rule="evenodd" clip-rule="evenodd" d="M271.285 37.4694L275.881 42.0653C276.031 42.2145 276.151 42.392 276.233 42.5876C276.315 42.7831 276.357 42.9929 276.358 43.2049C276.358 43.4169 276.317 43.6269 276.237 43.823C276.156 44.0191 276.038 44.1974 275.888 44.3477L273.333 46.9027L266.455 40.0244L269.01 37.4694C269.312 37.1688 269.721 37 270.147 37C270.574 37 270.983 37.1688 271.285 37.4694ZM251.344 60.0438L252.824 53.6563L265.116 41.3486L272.002 48.2191L259.663 60.5112L253.237 61.9912C253.125 62.0033 253.013 62.0033 252.902 61.9912C252.663 61.9898 252.427 61.935 252.212 61.8308C251.997 61.7266 251.808 61.5757 251.658 61.389C251.509 61.2024 251.403 60.9847 251.349 60.752C251.294 60.5193 251.293 60.2773 251.344 60.0438Z" fill="#EAEAEA"/>
<path d="M358.357 24.8365L350.901 17.3786C352.102 15.7272 352.749 13.737 352.747 11.6947C352.747 6.34916 348.398 2 343.052 2C337.707 2 333.357 6.34916 333.357 11.6947C333.357 17.0403 337.707 21.3894 343.052 21.3894C345.094 21.3914 347.085 20.745 348.736 19.5433L356.194 27L358.357 24.8365ZM343.052 18.3275C341.74 18.3276 340.458 17.9387 339.367 17.2098C338.276 16.481 337.425 15.445 336.923 14.2329C336.421 13.0208 336.29 11.687 336.546 10.4001C336.801 9.11333 337.433 7.93131 338.361 7.00358C339.289 6.07584 340.471 5.44406 341.758 5.18813C343.044 4.93219 344.378 5.06361 345.59 5.56575C346.802 6.06789 347.838 6.91821 348.567 8.00916C349.296 9.10011 349.685 10.3827 349.685 11.6947C349.683 13.4532 348.983 15.1391 347.74 16.3825C346.497 17.626 344.811 18.3255 343.052 18.3275Z" fill="#9E9898"/>
<path d="M358.357 59.8365L350.901 52.3786C352.102 50.7272 352.749 48.737 352.747 46.6947C352.747 41.3492 348.398 37 343.052 37C337.707 37 333.357 41.3492 333.357 46.6947C333.357 52.0403 337.707 56.3894 343.052 56.3894C345.094 56.3914 347.085 55.745 348.736 54.5433L356.194 62L358.357 59.8365ZM343.052 53.3275C341.74 53.3276 340.458 52.9387 339.367 52.2098C338.276 51.481 337.425 50.445 336.923 49.2329C336.421 48.0208 336.29 46.687 336.546 45.4001C336.801 44.1133 337.433 42.9313 338.361 42.0036C339.289 41.0758 340.471 40.4441 341.758 40.1881C343.044 39.9322 344.378 40.0636 345.59 40.5658C346.802 41.0679 347.838 41.9182 348.567 43.0092C349.296 44.1001 349.685 45.3827 349.685 46.6947C349.683 48.4532 348.983 50.1391 347.74 51.3825C346.497 52.626 344.811 53.3255 343.052 53.3275Z" fill="#EAEAEA"/>
<path d="M317.357 15.5C317.91 15.5 318.357 15.0523 318.357 14.5C318.357 13.9477 317.91 13.5 317.357 13.5H305.857V2C305.857 1.44772 305.41 1 304.857 1C304.305 1 303.857 1.44772 303.857 2V13.5H292.357C291.805 13.5 291.357 13.9477 291.357 14.5C291.357 15.0523 291.805 15.5 292.357 15.5H303.857V27C303.857 27.5523 304.305 28 304.857 28C305.41 28 305.857 27.5523 305.857 27V15.5H317.357Z" stroke="#9E9898" stroke-width="2" stroke-linecap="round" stroke-linejoin="round"/>
<path d="M317.357 50.5C317.91 50.5 318.357 50.0523 318.357 49.5C318.357 48.9477 317.91 48.5 317.357 48.5H305.857V37C305.857 36.4477 305.41 36 304.857 36C304.305 36 303.857 36.4477 303.857 37V48.5H292.357C291.805 48.5 291.357 48.9477 291.357 49.5C291.357 50.0523 291.805 50.5 292.357 50.5H303.857V62C303.857 62.5523 304.305 63 304.857 63C305.41 63 305.857 62.5523 305.857 62V50.5H317.357Z" stroke="#EAEAEA" stroke-width="2" stroke-linecap="round" stroke-linejoin="round"/>
<path d="M431.313 37.2241C431.126 37.0347 430.903 36.8841 430.657 36.7813C430.411 36.6781 430.147 36.625 429.88 36.625C429.613 36.625 429.349 36.6781 429.103 36.7813C428.856 36.8844 428.633 37.0353 428.445 37.2253L431.313 37.2241ZM431.313 37.2241C432.106 38.0101 432.106 39.3124 431.328 40.098L422.02 49.4933L431.314 58.8883L431.313 37.2241ZM428.445 37.2257L417.477 48.2964C417.477 48.2965 417.477 48.2965 417.477 48.2966C417.32 48.4548 417.196 48.6425 417.111 48.8488C417.026 49.0553 416.982 49.2765 416.982 49.4998C416.982 49.7231 417.026 49.9443 417.111 50.1508C417.196 50.3571 417.32 50.5448 417.477 50.703L428.445 37.2257ZM417.477 50.7033L428.445 61.7743C429.239 62.5752 430.521 62.5752 431.314 61.7743C432.106 60.9754 432.106 59.6875 431.314 58.8885L417.477 50.7033Z" fill="#EAEAEA" stroke="#EAEAEA" stroke-width="0.75"/>
<path d="M431.313 2.22413C431.126 2.03468 430.903 1.88415 430.657 1.78129C430.411 1.67814 430.147 1.625 429.88 1.625C429.613 1.625 429.349 1.67814 429.103 1.78129C428.856 1.88437 428.633 2.03532 428.445 2.22534L431.313 2.22413ZM431.313 2.22413C432.106 3.01015 432.106 4.31244 431.328 5.09801L422.02 14.4933L431.314 23.8883L431.313 2.22413ZM428.445 2.22568L417.477 13.2964C417.477 13.2965 417.477 13.2965 417.477 13.2966C417.32 13.4548 417.196 13.6425 417.111 13.8488C417.026 14.0553 416.982 14.2765 416.982 14.4998C416.982 14.7231 417.026 14.9443 417.111 15.1508C417.196 15.3571 417.32 15.5448 417.477 15.703L428.445 2.22568ZM417.477 15.7033L428.445 26.7743C429.239 27.5752 430.521 27.5752 431.314 26.7743C432.106 25.9754 432.106 24.6875 431.314 23.8885L417.477 15.7033Z" fill="#9E9898" stroke="#9E9898" stroke-width="0.75"/>
</svg>
