<svg width="195" height="51" viewBox="0 0 195 51" fill="none" xmlns="http://www.w3.org/2000/svg">
<g clip-path="url(#clip0_473_43)">
<path d="M25.5714 50.2439C39.275 50.2439 50.384 39.1659 50.384 25.5004C50.384 11.8349 39.275 0.756836 25.5714 0.756836C11.8678 0.756836 0.758789 11.8349 0.758789 25.5004C0.758789 39.1659 11.8678 50.2439 25.5714 50.2439Z" fill="#552B66"/>
<path d="M97.4981 50.2439C111.202 50.2439 122.311 39.1659 122.311 25.5004C122.311 11.8349 111.202 0.756836 97.4981 0.756836C83.7945 0.756836 72.6855 11.8349 72.6855 25.5004C72.6855 39.1659 83.7945 50.2439 97.4981 50.2439Z" fill="#DDC9E4"/>
<path d="M169.429 50.2439C183.132 50.2439 194.241 39.1659 194.241 25.5004C194.241 11.8349 183.132 0.756836 169.429 0.756836C155.725 0.756836 144.616 11.8349 144.616 25.5004C144.616 39.1659 155.725 50.2439 169.429 50.2439Z" fill="#7A0302"/>
</g>
<defs>
<clipPath id="clip0_473_43">
<rect width="195" height="51" fill="white"/>
</clipPath>
</defs>
</svg>
