<svg width="289" height="29" viewBox="0 0 289 29" fill="none" xmlns="http://www.w3.org/2000/svg">
<path d="M133.062 23V5.84375H136.637C137.895 5.84375 138.82 5.91016 139.414 6.04297C140.016 6.16797 140.531 6.38672 140.961 6.69922C141.508 7.10547 141.93 7.62891 142.227 8.26953C142.531 8.90234 142.684 9.59766 142.684 10.3555C142.684 11.2617 142.465 12.0195 142.027 12.6289C141.598 13.2383 140.969 13.6641 140.141 13.9062C141.156 14.0625 141.957 14.5195 142.543 15.2773C143.137 16.0273 143.434 16.9766 143.434 18.125C143.434 18.8125 143.309 19.4688 143.059 20.0938C142.809 20.7188 142.461 21.2539 142.016 21.6992C141.531 22.1758 140.934 22.5117 140.223 22.707C139.512 22.9023 138.316 23 136.637 23H133.062ZM135.055 14.9609V21.2188H136.637C137.723 21.2188 138.504 21.1758 138.98 21.0898C139.465 21.0039 139.852 20.8555 140.141 20.6445C140.492 20.3945 140.77 20.0469 140.973 19.6016C141.176 19.1562 141.277 18.6641 141.277 18.125C141.277 17.5 141.156 16.957 140.914 16.4961C140.672 16.0352 140.32 15.6758 139.859 15.418C139.586 15.2539 139.27 15.1367 138.91 15.0664C138.551 14.9961 137.992 14.9609 137.234 14.9609H136.637H135.055ZM135.055 7.61328V13.3555H136.637C138.09 13.3555 139.113 13.1445 139.707 12.7227C140.301 12.3008 140.598 11.5898 140.598 10.5898C140.598 9.48828 140.32 8.71875 139.766 8.28125C139.219 7.83594 138.176 7.61328 136.637 7.61328H135.055ZM148.098 12.2773V17.5508C148.098 19.0898 148.324 20.168 148.777 20.7852C149.238 21.3945 150.012 21.6992 151.098 21.6992C152.184 21.6992 152.949 21.3984 153.395 20.7969C153.848 20.1875 154.074 19.1055 154.074 17.5508V12.2773H155.949V18.5352C155.949 20.1523 155.535 21.3789 154.707 22.2148C153.879 23.043 152.66 23.457 151.051 23.457C149.457 23.457 148.246 23.0391 147.418 22.2031C146.59 21.3672 146.176 20.1445 146.176 18.5352V12.2773H148.098ZM158.363 21.1953L159.934 20.1406C160.23 20.7109 160.605 21.1406 161.059 21.4297C161.512 21.7109 162.047 21.8516 162.664 21.8516C163.266 21.8516 163.75 21.7031 164.117 21.4062C164.492 21.1094 164.68 20.7188 164.68 20.2344C164.68 19.8594 164.551 19.5469 164.293 19.2969C164.043 19.0469 163.609 18.8164 162.992 18.6055L162.688 18.5C160.078 17.6016 158.773 16.4766 158.773 15.125C158.773 14.1719 159.125 13.3945 159.828 12.793C160.531 12.1914 161.445 11.8906 162.57 11.8906C163.5 11.8906 164.297 12.0781 164.961 12.4531C165.625 12.8203 166.102 13.3438 166.391 14.0234L164.902 14.9375C164.684 14.4453 164.359 14.0664 163.93 13.8008C163.508 13.5352 163.016 13.4023 162.453 13.4023C161.914 13.4023 161.473 13.5547 161.129 13.8594C160.793 14.1562 160.625 14.5391 160.625 15.0078C160.625 15.6641 161.336 16.2148 162.758 16.6602C163.023 16.7461 163.234 16.8125 163.391 16.8594C164.555 17.2344 165.363 17.6641 165.816 18.1484C166.277 18.625 166.508 19.2578 166.508 20.0469C166.508 21.0625 166.145 21.8867 165.418 22.5195C164.699 23.1445 163.758 23.457 162.594 23.457C161.594 23.457 160.742 23.2695 160.039 22.8945C159.344 22.5195 158.785 21.9531 158.363 21.1953ZM168.934 7.10938C168.934 6.74219 169.062 6.42969 169.32 6.17188C169.586 5.90625 169.906 5.77344 170.281 5.77344C170.648 5.77344 170.961 5.90625 171.219 6.17188C171.484 6.4375 171.617 6.75781 171.617 7.13281C171.617 7.5 171.488 7.8125 171.23 8.07031C170.973 8.32812 170.656 8.45703 170.281 8.45703C169.906 8.45703 169.586 8.32812 169.32 8.07031C169.062 7.8125 168.934 7.49219 168.934 7.10938ZM169.367 23V12.2773H171.219V23H169.367ZM175.086 23V12.2773H176.879V13.9297C177.34 13.2422 177.895 12.7305 178.543 12.3945C179.191 12.0586 179.941 11.8906 180.793 11.8906C182.059 11.8906 183.047 12.2266 183.758 12.8984C184.469 13.5703 184.824 14.5039 184.824 15.6992V23H182.949V16.6836C182.949 15.5977 182.719 14.793 182.258 14.2695C181.805 13.7383 181.102 13.4727 180.148 13.4727C179.602 13.4727 179.102 13.5742 178.648 13.7773C178.203 13.9727 177.832 14.2539 177.535 14.6211C177.309 14.9023 177.145 15.2227 177.043 15.582C176.949 15.9414 176.902 16.5664 176.902 17.457V23H175.086ZM196.074 16.4258C196.012 15.4805 195.695 14.7539 195.125 14.2461C194.562 13.7305 193.789 13.4727 192.805 13.4727C191.914 13.4727 191.172 13.7422 190.578 14.2812C189.984 14.8125 189.641 15.5273 189.547 16.4258H196.074ZM198.043 17.9141H189.547V18.0781C189.547 19.2266 189.875 20.1562 190.531 20.8672C191.188 21.5703 192.043 21.9219 193.098 21.9219C193.816 21.9219 194.465 21.7305 195.043 21.3477C195.621 20.957 196.133 20.3711 196.578 19.5898L197.973 20.5273C197.434 21.4961 196.746 22.2266 195.91 22.7188C195.074 23.2109 194.105 23.457 193.004 23.457C191.371 23.457 190.051 22.918 189.043 21.8398C188.035 20.7617 187.531 19.3477 187.531 17.5977C187.531 15.918 188.031 14.543 189.031 13.4727C190.031 12.4023 191.316 11.8672 192.887 11.8672C194.473 11.8672 195.727 12.375 196.648 13.3906C197.578 14.4062 198.043 15.793 198.043 17.5508V17.9141ZM199.684 21.1953L201.254 20.1406C201.551 20.7109 201.926 21.1406 202.379 21.4297C202.832 21.7109 203.367 21.8516 203.984 21.8516C204.586 21.8516 205.07 21.7031 205.438 21.4062C205.812 21.1094 206 20.7188 206 20.2344C206 19.8594 205.871 19.5469 205.613 19.2969C205.363 19.0469 204.93 18.8164 204.312 18.6055L204.008 18.5C201.398 17.6016 200.094 16.4766 200.094 15.125C200.094 14.1719 200.445 13.3945 201.148 12.793C201.852 12.1914 202.766 11.8906 203.891 11.8906C204.82 11.8906 205.617 12.0781 206.281 12.4531C206.945 12.8203 207.422 13.3438 207.711 14.0234L206.223 14.9375C206.004 14.4453 205.68 14.0664 205.25 13.8008C204.828 13.5352 204.336 13.4023 203.773 13.4023C203.234 13.4023 202.793 13.5547 202.449 13.8594C202.113 14.1562 201.945 14.5391 201.945 15.0078C201.945 15.6641 202.656 16.2148 204.078 16.6602C204.344 16.7461 204.555 16.8125 204.711 16.8594C205.875 17.2344 206.684 17.6641 207.137 18.1484C207.598 18.625 207.828 19.2578 207.828 20.0469C207.828 21.0625 207.465 21.8867 206.738 22.5195C206.02 23.1445 205.078 23.457 203.914 23.457C202.914 23.457 202.062 23.2695 201.359 22.8945C200.664 22.5195 200.105 21.9531 199.684 21.1953ZM209.457 21.1953L211.027 20.1406C211.324 20.7109 211.699 21.1406 212.152 21.4297C212.605 21.7109 213.141 21.8516 213.758 21.8516C214.359 21.8516 214.844 21.7031 215.211 21.4062C215.586 21.1094 215.773 20.7188 215.773 20.2344C215.773 19.8594 215.645 19.5469 215.387 19.2969C215.137 19.0469 214.703 18.8164 214.086 18.6055L213.781 18.5C211.172 17.6016 209.867 16.4766 209.867 15.125C209.867 14.1719 210.219 13.3945 210.922 12.793C211.625 12.1914 212.539 11.8906 213.664 11.8906C214.594 11.8906 215.391 12.0781 216.055 12.4531C216.719 12.8203 217.195 13.3438 217.484 14.0234L215.996 14.9375C215.777 14.4453 215.453 14.0664 215.023 13.8008C214.602 13.5352 214.109 13.4023 213.547 13.4023C213.008 13.4023 212.566 13.5547 212.223 13.8594C211.887 14.1562 211.719 14.5391 211.719 15.0078C211.719 15.6641 212.43 16.2148 213.852 16.6602C214.117 16.7461 214.328 16.8125 214.484 16.8594C215.648 17.2344 216.457 17.6641 216.91 18.1484C217.371 18.625 217.602 19.2578 217.602 20.0469C217.602 21.0625 217.238 21.8867 216.512 22.5195C215.793 23.1445 214.852 23.457 213.688 23.457C212.688 23.457 211.836 23.2695 211.133 22.8945C210.438 22.5195 209.879 21.9531 209.457 21.1953ZM241.555 9.94531C240.734 9.05469 239.859 8.39844 238.93 7.97656C238 7.54687 236.973 7.33203 235.848 7.33203C234.941 7.33203 234.055 7.51563 233.188 7.88281C232.328 8.25 231.582 8.76172 230.949 9.41797C230.293 10.0977 229.801 10.8594 229.473 11.7031C229.145 12.5391 228.98 13.4648 228.98 14.4805C228.98 15.2773 229.078 16.0117 229.273 16.6836C229.469 17.3555 229.762 17.9727 230.152 18.5352C230.84 19.5117 231.684 20.2656 232.684 20.7969C233.691 21.3203 234.777 21.582 235.941 21.582C237.035 21.582 238.051 21.3555 238.988 20.9023C239.926 20.4492 240.781 19.7734 241.555 18.875V21.582C240.703 22.1992 239.785 22.668 238.801 22.9883C237.824 23.3008 236.812 23.457 235.766 23.457C234.859 23.457 233.977 23.3203 233.117 23.0469C232.258 22.7812 231.453 22.3906 230.703 21.875C229.453 21.0078 228.496 19.9414 227.832 18.6758C227.176 17.4102 226.848 16.0195 226.848 14.5039C226.848 13.1836 227.066 11.9844 227.504 10.9062C227.949 9.82031 228.625 8.83594 229.531 7.95312C230.406 7.10938 231.375 6.48047 232.438 6.06641C233.5 5.64453 234.66 5.43359 235.918 5.43359C236.91 5.43359 237.871 5.58594 238.801 5.89062C239.73 6.1875 240.648 6.65234 241.555 7.28516V9.94531ZM253.062 17.7383C253.062 16.5273 252.73 15.5547 252.066 14.8203C251.41 14.0781 250.551 13.707 249.488 13.707C248.387 13.707 247.527 14.0469 246.91 14.7266C246.293 15.4062 245.984 16.3555 245.984 17.5742C245.984 18.8711 246.293 19.8711 246.91 20.5742C247.535 21.2773 248.418 21.6289 249.559 21.6289C250.652 21.6289 251.508 21.2891 252.125 20.6094C252.75 19.9219 253.062 18.9648 253.062 17.7383ZM254.844 12.2773V23H253.062V21.0547C252.633 21.8359 252.082 22.4336 251.41 22.8477C250.746 23.2539 250 23.457 249.172 23.457C247.633 23.457 246.391 22.9297 245.445 21.875C244.508 20.8125 244.039 19.4102 244.039 17.668C244.039 15.9023 244.496 14.5 245.41 13.4609C246.324 12.4141 247.547 11.8906 249.078 11.8906C249.977 11.8906 250.754 12.0938 251.41 12.5C252.074 12.8984 252.609 13.4961 253.016 14.293V12.2773H254.844ZM258.547 23V12.2773H260.176V14.5039C260.668 13.5742 261.191 12.9102 261.746 12.5117C262.301 12.1133 262.977 11.9141 263.773 11.9141C263.992 11.9141 264.203 11.9336 264.406 11.9727C264.609 12.0039 264.812 12.0547 265.016 12.125L264.406 13.7773C264.195 13.707 263.996 13.6562 263.809 13.625C263.621 13.5859 263.441 13.5664 263.27 13.5664C262.301 13.5664 261.574 13.918 261.09 14.6211C260.605 15.3164 260.363 16.3672 260.363 17.7734V23H258.547ZM275.164 17.6914C275.164 16.4961 274.832 15.5352 274.168 14.8086C273.504 14.0742 272.629 13.707 271.543 13.707C270.457 13.707 269.609 14.0391 269 14.7031C268.391 15.3672 268.086 16.2852 268.086 17.457C268.086 18.7773 268.395 19.8125 269.012 20.5625C269.629 21.3047 270.48 21.6758 271.566 21.6758C272.691 21.6758 273.57 21.3242 274.203 20.6211C274.844 19.918 275.164 18.9414 275.164 17.6914ZM276.945 4.83594V23H275.164V21.0547C274.742 21.8281 274.195 22.4219 273.523 22.8359C272.852 23.25 272.102 23.457 271.273 23.457C269.734 23.457 268.492 22.9297 267.547 21.875C266.609 20.8125 266.141 19.4102 266.141 17.668C266.141 15.9102 266.602 14.5078 267.523 13.4609C268.445 12.4141 269.672 11.8906 271.203 11.8906C272.094 11.8906 272.867 12.0938 273.523 12.5C274.18 12.8984 274.711 13.4961 275.117 14.293V4.83594H276.945ZM279.559 21.1953L281.129 20.1406C281.426 20.7109 281.801 21.1406 282.254 21.4297C282.707 21.7109 283.242 21.8516 283.859 21.8516C284.461 21.8516 284.945 21.7031 285.312 21.4062C285.688 21.1094 285.875 20.7188 285.875 20.2344C285.875 19.8594 285.746 19.5469 285.488 19.2969C285.238 19.0469 284.805 18.8164 284.188 18.6055L283.883 18.5C281.273 17.6016 279.969 16.4766 279.969 15.125C279.969 14.1719 280.32 13.3945 281.023 12.793C281.727 12.1914 282.641 11.8906 283.766 11.8906C284.695 11.8906 285.492 12.0781 286.156 12.4531C286.82 12.8203 287.297 13.3438 287.586 14.0234L286.098 14.9375C285.879 14.4453 285.555 14.0664 285.125 13.8008C284.703 13.5352 284.211 13.4023 283.648 13.4023C283.109 13.4023 282.668 13.5547 282.324 13.8594C281.988 14.1562 281.82 14.5391 281.82 15.0078C281.82 15.6641 282.531 16.2148 283.953 16.6602C284.219 16.7461 284.43 16.8125 284.586 16.8594C285.75 17.2344 286.559 17.6641 287.012 18.1484C287.473 18.625 287.703 19.2578 287.703 20.0469C287.703 21.0625 287.34 21.8867 286.613 22.5195C285.895 23.1445 284.953 23.457 283.789 23.457C282.789 23.457 281.938 23.2695 281.234 22.8945C280.539 22.5195 279.98 21.9531 279.559 21.1953Z" fill="black"/>
<path d="M131 26.293H288.594V28.813H131V26.293Z" fill="black"/>
<path d="M5.66666 14C5.66666 12.5272 4.47276 11.3333 3 11.3333C1.52724 11.3333 0.333336 12.5273 0.333336 14C0.333336 15.4728 1.52724 16.6667 3 16.6667C4.47276 16.6667 5.66666 15.4728 5.66666 14ZM110 13.5L3 13.5L3 14.5L110 14.5L110 13.5Z" fill="black"/>
</svg>
