<svg width="403" height="113" viewBox="0 0 403 113" fill="none" xmlns="http://www.w3.org/2000/svg">
<path d="M2.0625 107V89.8438H11.1094V91.707H4.10156V96.6289H11.1094V98.5273H4.10156V105.102H11.1094V107H2.0625ZM14.3906 107V96.2773H16.1836V97.9297C16.6445 97.2422 17.1992 96.7305 17.8477 96.3945C18.4961 96.0586 19.2461 95.8906 20.0977 95.8906C21.3633 95.8906 22.3516 96.2266 23.0625 96.8984C23.7734 97.5703 24.1289 98.5039 24.1289 99.6992V107H22.2539V100.684C22.2539 99.5977 22.0234 98.793 21.5625 98.2695C21.1094 97.7383 20.4062 97.4727 19.4531 97.4727C18.9062 97.4727 18.4062 97.5742 17.9531 97.7773C17.5078 97.9727 17.1367 98.2539 16.8398 98.6211C16.6133 98.9023 16.4492 99.2227 16.3477 99.582C16.2539 99.9414 16.207 100.566 16.207 101.457V107H14.3906ZM31.3008 107.668L25.9922 96.2773H28.0547L31.2773 103.766L34.5117 96.2773H36.5742L31.3008 107.668ZM46.1602 100.426C46.0977 99.4805 45.7812 98.7539 45.2109 98.2461C44.6484 97.7305 43.875 97.4727 42.8906 97.4727C42 97.4727 41.2578 97.7422 40.6641 98.2812C40.0703 98.8125 39.7266 99.5273 39.6328 100.426H46.1602ZM48.1289 101.914H39.6328V102.078C39.6328 103.227 39.9609 104.156 40.6172 104.867C41.2734 105.57 42.1289 105.922 43.1836 105.922C43.9023 105.922 44.5508 105.73 45.1289 105.348C45.707 104.957 46.2188 104.371 46.6641 103.59L48.0586 104.527C47.5195 105.496 46.832 106.227 45.9961 106.719C45.1602 107.211 44.1914 107.457 43.0898 107.457C41.457 107.457 40.1367 106.918 39.1289 105.84C38.1211 104.762 37.6172 103.348 37.6172 101.598C37.6172 99.918 38.1172 98.543 39.1172 97.4727C40.1172 96.4023 41.4023 95.8672 42.9727 95.8672C44.5586 95.8672 45.8125 96.375 46.7344 97.3906C47.6641 98.4062 48.1289 99.793 48.1289 101.551V101.914ZM51 107V88.8359H52.875V107H51ZM57.7969 101.668C57.7969 102.801 58.1758 103.762 58.9336 104.551C59.6914 105.332 60.6094 105.723 61.6875 105.723C62.7578 105.723 63.668 105.332 64.418 104.551C65.168 103.762 65.543 102.801 65.543 101.668C65.543 100.535 65.168 99.5781 64.418 98.7969C63.668 98.0078 62.7578 97.6133 61.6875 97.6133C60.6016 97.6133 59.6797 98.0078 58.9219 98.7969C58.1719 99.5781 57.7969 100.535 57.7969 101.668ZM55.8516 101.668C55.8516 100.879 55.9961 100.137 56.2852 99.4414C56.5742 98.7383 56.9961 98.1133 57.5508 97.5664C58.1055 97.0195 58.7344 96.6055 59.4375 96.3242C60.1406 96.0352 60.8906 95.8906 61.6875 95.8906C62.4688 95.8906 63.207 96.0352 63.9023 96.3242C64.6055 96.6133 65.2422 97.0352 65.8125 97.5898C66.3672 98.1289 66.7891 98.75 67.0781 99.4531C67.3672 100.148 67.5117 100.887 67.5117 101.668C67.5117 102.449 67.3672 103.188 67.0781 103.883C66.7891 104.57 66.3672 105.184 65.8125 105.723C65.2422 106.285 64.6016 106.715 63.8906 107.012C63.1875 107.309 62.4531 107.457 61.6875 107.457C60.8984 107.457 60.1484 107.309 59.4375 107.012C58.7344 106.723 58.1055 106.305 57.5508 105.758C56.9961 105.195 56.5742 104.57 56.2852 103.883C55.9961 103.195 55.8516 102.457 55.8516 101.668ZM72.1523 101.668C72.1523 102.871 72.4844 103.836 73.1484 104.562C73.8125 105.289 74.6914 105.652 75.7852 105.652C76.8555 105.652 77.6953 105.32 78.3047 104.656C78.9219 103.992 79.2305 103.07 79.2305 101.891C79.2305 100.57 78.9219 99.5352 78.3047 98.7852C77.6953 98.0352 76.8438 97.6602 75.75 97.6602C74.6328 97.6602 73.7539 98.0156 73.1133 98.7266C72.4727 99.4375 72.1523 100.418 72.1523 101.668ZM70.3828 112.227V96.2773H72.1289V98.293C72.543 97.5195 73.0898 96.9258 73.7695 96.5117C74.4492 96.0977 75.207 95.8906 76.043 95.8906C77.5898 95.8906 78.832 96.418 79.7695 97.4727C80.707 98.5273 81.1758 99.9258 81.1758 101.668C81.1758 103.441 80.7148 104.852 79.793 105.898C78.8789 106.938 77.6523 107.457 76.1133 107.457C75.2305 107.457 74.4609 107.258 73.8047 106.859C73.1484 106.453 72.6133 105.852 72.1992 105.055V112.227H70.3828ZM91.7227 100.426C91.6602 99.4805 91.3438 98.7539 90.7734 98.2461C90.2109 97.7305 89.4375 97.4727 88.4531 97.4727C87.5625 97.4727 86.8203 97.7422 86.2266 98.2812C85.6328 98.8125 85.2891 99.5273 85.1953 100.426H91.7227ZM93.6914 101.914H85.1953V102.078C85.1953 103.227 85.5234 104.156 86.1797 104.867C86.8359 105.57 87.6914 105.922 88.7461 105.922C89.4648 105.922 90.1133 105.73 90.6914 105.348C91.2695 104.957 91.7812 104.371 92.2266 103.59L93.6211 104.527C93.082 105.496 92.3945 106.227 91.5586 106.719C90.7227 107.211 89.7539 107.457 88.6523 107.457C87.0195 107.457 85.6992 106.918 84.6914 105.84C83.6836 104.762 83.1797 103.348 83.1797 101.598C83.1797 99.918 83.6797 98.543 84.6797 97.4727C85.6797 96.4023 86.9648 95.8672 88.5352 95.8672C90.1211 95.8672 91.375 96.375 92.2969 97.3906C93.2266 98.4062 93.6914 99.793 93.6914 101.551V101.914ZM105.797 105.078H107.098C109.207 105.078 110.668 104.988 111.48 104.809C112.293 104.621 112.969 104.305 113.508 103.859C114.211 103.273 114.746 102.52 115.113 101.598C115.48 100.668 115.664 99.6055 115.664 98.4102C115.664 97.207 115.48 96.1523 115.113 95.2461C114.754 94.332 114.219 93.5781 113.508 92.9844C112.969 92.5312 112.281 92.2109 111.445 92.0234C110.617 91.8281 109.168 91.7305 107.098 91.7305H105.797V105.078ZM103.734 107V89.8438H107.027C109.465 89.8438 111.18 89.9688 112.172 90.2188C113.172 90.4609 114.047 90.8711 114.797 91.4492C115.781 92.207 116.527 93.1758 117.035 94.3555C117.543 95.5352 117.797 96.8945 117.797 98.4336C117.797 99.9648 117.543 101.32 117.035 102.5C116.535 103.672 115.789 104.637 114.797 105.395C114.047 105.973 113.191 106.387 112.23 106.637C111.277 106.879 109.789 107 107.766 107H107.027H103.734ZM128.566 100.426C128.504 99.4805 128.188 98.7539 127.617 98.2461C127.055 97.7305 126.281 97.4727 125.297 97.4727C124.406 97.4727 123.664 97.7422 123.07 98.2812C122.477 98.8125 122.133 99.5273 122.039 100.426H128.566ZM130.535 101.914H122.039V102.078C122.039 103.227 122.367 104.156 123.023 104.867C123.68 105.57 124.535 105.922 125.59 105.922C126.309 105.922 126.957 105.73 127.535 105.348C128.113 104.957 128.625 104.371 129.07 103.59L130.465 104.527C129.926 105.496 129.238 106.227 128.402 106.719C127.566 107.211 126.598 107.457 125.496 107.457C123.863 107.457 122.543 106.918 121.535 105.84C120.527 104.762 120.023 103.348 120.023 101.598C120.023 99.918 120.523 98.543 121.523 97.4727C122.523 96.4023 123.809 95.8672 125.379 95.8672C126.965 95.8672 128.219 96.375 129.141 97.3906C130.07 98.4062 130.535 99.793 130.535 101.551V101.914ZM132.176 105.195L133.746 104.141C134.043 104.711 134.418 105.141 134.871 105.43C135.324 105.711 135.859 105.852 136.477 105.852C137.078 105.852 137.562 105.703 137.93 105.406C138.305 105.109 138.492 104.719 138.492 104.234C138.492 103.859 138.363 103.547 138.105 103.297C137.855 103.047 137.422 102.816 136.805 102.605L136.5 102.5C133.891 101.602 132.586 100.477 132.586 99.125C132.586 98.1719 132.938 97.3945 133.641 96.793C134.344 96.1914 135.258 95.8906 136.383 95.8906C137.312 95.8906 138.109 96.0781 138.773 96.4531C139.438 96.8203 139.914 97.3438 140.203 98.0234L138.715 98.9375C138.496 98.4453 138.172 98.0664 137.742 97.8008C137.32 97.5352 136.828 97.4023 136.266 97.4023C135.727 97.4023 135.285 97.5547 134.941 97.8594C134.605 98.1562 134.438 98.5391 134.438 99.0078C134.438 99.6641 135.148 100.215 136.57 100.66C136.836 100.746 137.047 100.812 137.203 100.859C138.367 101.234 139.176 101.664 139.629 102.148C140.09 102.625 140.32 103.258 140.32 104.047C140.32 105.062 139.957 105.887 139.23 106.52C138.512 107.145 137.57 107.457 136.406 107.457C135.406 107.457 134.555 107.27 133.852 106.895C133.156 106.52 132.598 105.953 132.176 105.195ZM142.746 91.1094C142.746 90.7422 142.875 90.4297 143.133 90.1719C143.398 89.9062 143.719 89.7734 144.094 89.7734C144.461 89.7734 144.773 89.9062 145.031 90.1719C145.297 90.4375 145.43 90.7578 145.43 91.1328C145.43 91.5 145.301 91.8125 145.043 92.0703C144.785 92.3281 144.469 92.457 144.094 92.457C143.719 92.457 143.398 92.3281 143.133 92.0703C142.875 91.8125 142.746 91.4922 142.746 91.1094ZM143.18 107V96.2773H145.031V107H143.18ZM157.102 101.668C157.102 100.465 156.773 99.4961 156.117 98.7617C155.461 98.0273 154.598 97.6602 153.527 97.6602C152.426 97.6602 151.566 98 150.949 98.6797C150.332 99.3594 150.023 100.309 150.023 101.527C150.023 102.824 150.332 103.824 150.949 104.527C151.574 105.23 152.457 105.582 153.598 105.582C154.691 105.582 155.547 105.238 156.164 104.551C156.789 103.855 157.102 102.895 157.102 101.668ZM158.883 96.2773V106.812C158.883 107.977 158.805 108.805 158.648 109.297C158.492 109.789 158.234 110.23 157.875 110.621C157.375 111.16 156.762 111.562 156.035 111.828C155.316 112.094 154.488 112.227 153.551 112.227C151.926 112.227 150.656 111.855 149.742 111.113C148.836 110.371 148.363 109.32 148.324 107.961H150.387V108.102C150.387 108.906 150.664 109.527 151.219 109.965C151.773 110.402 152.559 110.621 153.574 110.621C154.309 110.621 154.934 110.5 155.449 110.258C155.973 110.023 156.371 109.672 156.645 109.203C156.809 108.938 156.926 108.629 156.996 108.277C157.066 107.926 157.102 107.422 157.102 106.766V105.922V104.961C156.688 105.727 156.145 106.316 155.473 106.73C154.801 107.137 154.047 107.34 153.211 107.34C151.672 107.34 150.43 106.816 149.484 105.77C148.547 104.723 148.078 103.332 148.078 101.598C148.078 99.8477 148.535 98.4609 149.449 97.4375C150.363 96.4062 151.586 95.8906 153.117 95.8906C154.008 95.8906 154.789 96.0938 155.461 96.5C156.133 96.8984 156.664 97.4883 157.055 98.2695V96.2773H158.883ZM162.609 107V96.2773H164.402V97.9297C164.863 97.2422 165.418 96.7305 166.066 96.3945C166.715 96.0586 167.465 95.8906 168.316 95.8906C169.582 95.8906 170.57 96.2266 171.281 96.8984C171.992 97.5703 172.348 98.5039 172.348 99.6992V107H170.473V100.684C170.473 99.5977 170.242 98.793 169.781 98.2695C169.328 97.7383 168.625 97.4727 167.672 97.4727C167.125 97.4727 166.625 97.5742 166.172 97.7773C165.727 97.9727 165.355 98.2539 165.059 98.6211C164.832 98.9023 164.668 99.2227 164.566 99.582C164.473 99.9414 164.426 100.566 164.426 101.457V107H162.609Z" fill="black"/>
<path d="M0 110.293H67.8628V112.813H0V110.293ZM74.7231 110.293H146.48V112.813H74.7231V110.293ZM160.661 110.293H174.105V112.813H160.661V110.293Z" fill="black"/>
<path d="M397.333 2.99997C397.333 4.47273 398.527 5.66664 400 5.66664C401.473 5.66664 402.667 4.47273 402.667 2.99997C402.667 1.52721 401.473 0.333306 400 0.333306C398.527 0.333306 397.333 1.52721 397.333 2.99997ZM88 3.5L400 3.49997L400 2.49997L88 2.5L88 3.5Z" fill="black"/>
<path d="M88 68L88 3" stroke="black"/>
</svg>
